<svg width="240" height="114" viewBox="0 0 240 114" fill="none" xmlns="http://www.w3.org/2000/svg">
<path d="M11.3447 56.8082L32.2268 51.8275V41H21.3993L11.3447 56.8082Z" fill="white"/>
<path d="M1 56.6174C0.999163 57.8811 1.15256 59.1402 1.45678 60.3667L11.3488 56.8074L1.37456 53.208C1.12604 54.3262 1.00044 55.4683 1 56.6138V56.6174Z" fill="white"/>
<path d="M4.67969 46.5488L11.3468 56.8063L14.42 41.1533C10.6192 41.6899 7.15052 43.6113 4.67969 46.5488Z" fill="white"/>
<path d="M11.3447 56.8076L32.2268 61.7847V72.6086H21.3993L11.3447 56.8076Z" fill="white"/>
<path d="M4.67944 67.0612L11.3447 56.8037L14.4161 72.4548C10.6158 71.9167 7.14764 69.9955 4.67578 67.0593L4.67944 67.0612Z" fill="white"/>
<path d="M50.6872 56.8571C50.6872 51.4269 54.8768 47.5771 60.7473 47.5771C64.5221 47.5771 67.5076 49.0736 68.8231 52.0043C68.8231 52.0134 63.9996 53.2832 63.9996 53.2832C63.5837 52.8266 63.0752 52.4639 62.5081 52.2194C61.941 51.9749 61.3283 51.8542 60.7108 51.8654C58.0615 51.8654 55.9822 53.7108 55.9822 56.8589C55.9822 60.007 58.0615 61.8543 60.7108 61.8543C61.3247 61.8698 61.9348 61.753 62.4995 61.5122C63.0645 61.2714 63.5711 60.912 63.985 60.4583L68.8103 61.6113C67.4948 64.4744 64.5185 66.1443 60.7418 66.1443C54.8768 66.1443 50.6836 62.2891 50.6836 56.8571H50.6872Z" fill="white"/>
<path d="M90.0195 55.5512V65.8762H84.7922V56.3478C84.7922 53.4244 83.4492 52.0906 81.1379 52.0906C78.6238 52.0906 76.8132 53.6345 76.8132 56.9526V65.8708H71.584V42.279L76.8113 41V49.7172C78.2219 48.3085 80.2335 47.5776 82.5466 47.5776C86.8038 47.5776 90.0232 50.057 90.0232 55.5585L90.0195 55.5512Z" fill="white"/>
<path d="M112.852 46.9961V65.8758H107.857V63.7965C106.55 65.3715 104.637 66.1444 102.226 66.1444C97.128 66.1444 93.207 62.523 93.207 56.8571C93.207 51.1912 97.128 47.5771 102.222 47.5771C104.435 47.5771 106.313 48.2824 107.619 49.755V48.2933L112.848 47.0144L112.852 46.9961ZM107.722 56.8625C107.722 53.7455 105.712 51.8672 103.128 51.8672C100.545 51.8672 98.502 53.7455 98.502 56.8625C98.502 59.9796 100.512 61.8561 103.128 61.8561C105.745 61.8561 107.722 59.9742 107.722 56.8571V56.8625Z" fill="white"/>
<path d="M128.51 47.6103V52.4303C128.073 52.3992 127.737 52.3645 127.337 52.3645C124.454 52.3645 122.541 53.9395 122.541 57.3927V65.9089H117.313V48.237L122.307 47.0293V50.2523C123.582 48.5093 125.725 47.6103 128.51 47.6103Z" fill="white"/>
<path d="M149.964 46.9961V62.8574C149.964 69.5629 146.345 72.6471 139.84 72.6471C136.422 72.6471 133.1 71.8084 130.99 70.1677L133.069 66.4129C134.609 67.6536 137.125 68.4575 139.436 68.4575C143.125 68.4575 144.735 66.782 144.735 63.5243V62.7532C143.361 64.2606 141.382 64.9988 139.036 64.9988C134.043 64.9988 130.02 61.5455 130.02 56.2815C130.02 51.0176 134.043 47.5771 139.036 47.5771C141.552 47.5771 143.63 48.4158 145.005 50.1588V48.2184L149.968 46.9997L149.964 46.9961ZM144.795 56.287C144.795 53.6377 142.818 51.8635 140.067 51.8635C137.315 51.8635 135.305 53.6413 135.305 56.287C135.305 58.9327 137.315 60.7105 140.067 60.7105C142.818 60.7105 144.795 58.9327 144.795 56.287Z" fill="white"/>
<path d="M159.114 59.828C159.977 61.2367 161.533 61.9529 163.62 61.9529C165.533 61.9529 166.909 61.3829 168.148 60.2099L170.932 63.2283C169.257 65.1413 166.741 66.1517 163.49 66.1517C157.252 66.1517 153.196 62.2307 153.196 56.8644C153.196 51.4981 157.287 47.5771 162.853 47.5771C167.837 47.5771 171.957 50.9043 172.171 56.446L159.118 59.8316M158.329 56.7347L167.141 54.6317C166.638 52.7863 165.03 51.5256 162.853 51.5256C160.238 51.531 158.329 53.1937 158.329 56.7347Z" fill="white"/>
<path d="M202.976 59.828C203.838 61.2367 205.395 61.9529 207.483 61.9529C209.394 61.9529 210.772 61.3829 212.009 60.2099L214.793 63.2283C213.118 65.1413 210.602 66.1517 207.352 66.1517C201.114 66.1517 197.058 62.2307 197.058 56.8644C197.058 51.4981 201.149 47.5771 206.714 47.5771C211.698 47.5771 215.818 50.9043 216.032 56.446L202.985 59.8353M202.195 56.7383L211.009 54.6353C210.505 52.7899 208.897 51.5292 206.719 51.5292C204.099 51.531 202.19 53.1937 202.19 56.7347L202.195 56.7383Z" fill="white"/>
<path d="M223.943 59.828C224.806 61.2367 226.362 61.9529 228.451 61.9529C230.362 61.9529 231.74 61.3829 232.977 60.2099L235.761 63.2283C234.086 65.1413 231.57 66.1517 228.317 66.1517C222.082 66.1517 218.025 62.2307 218.025 56.8644C218.025 51.4981 222.116 47.5771 227.682 47.5771C232.666 47.5771 236.786 50.9043 237 56.446L223.953 59.8353M223.163 56.7383L231.975 54.6353C231.473 52.7899 229.865 51.5292 227.687 51.5292C225.067 51.531 223.158 53.1937 223.158 56.7347L223.163 56.7383Z" fill="white"/>
<path d="M195.015 56.8576C195.015 62.5217 191.094 66.1448 186.029 66.1448C183.614 66.1448 181.674 65.372 180.365 63.797V65.8762H175.368V42.279L180.603 41V49.7483C181.938 48.2719 183.782 47.5776 186.028 47.5776C191.089 47.5776 195.013 51.1972 195.013 56.8649L195.015 56.8576ZM189.716 56.8576C189.716 53.7405 187.74 51.8641 185.121 51.8641C182.503 51.8641 180.53 53.7405 180.53 56.8576C180.53 59.9746 182.509 61.8511 185.123 61.8511C187.738 61.8511 189.718 59.9746 189.718 56.8576H189.716Z" fill="white"/>
</svg>
