<svg width="240" height="114" viewBox="0 0 240 114" fill="none" xmlns="http://www.w3.org/2000/svg">
<path d="M97.5533 71.7418L97.4316 41.5005C97.4316 38.46 99.8128 36.0005 102.867 36.0005H103.463C106.52 36.0005 108.998 38.46 108.998 41.5005L109.12 71.7418C109.12 74.7776 106.646 77.2441 103.582 77.2441H102.955C99.8915 77.2441 97.5533 74.7776 97.5533 71.7418Z" fill="white"/>
<path d="M167.428 39.5742L179.725 59.4751C182.382 63.7725 183 64.892 183 68.0606C183 73.0577 178.443 76.8809 174.399 76.8809L157.796 76.8809C154.761 76.8809 152.315 74.7985 152.315 71.7888V71.445C152.315 68.4377 154.761 66.0019 157.796 66.0019H167.974C168.611 66.0019 169.017 65.9166 169.184 65.5157C169.37 65.077 169.32 64.8303 169.017 64.3394L161.766 52.7727C161.644 52.5806 161.511 52.3149 161.282 52.3149C161.072 52.3149 160.89 52.5806 160.792 52.7869L149.705 71.6892C147.987 74.6894 145.955 76.8809 142.924 76.8809H121.621C117.589 76.8809 113.525 72.9273 113.525 68.8314V41.4858C113.525 38.4809 115.973 36.0404 118.991 36.0404H119.691C122.716 36.0404 125.171 38.4809 125.171 41.4858L125.161 63.8247C125.161 64.6501 125.763 65.3023 126.657 65.3023H137.251C139.1 65.3023 140.219 64.6406 141.192 63.0326L155.429 39.5742C156.789 37.3425 158.965 36.1495 161.532 36.1495C164.016 36.1495 165.984 37.2666 167.428 39.5742Z" fill="white"/>
<path d="M70.132 62.7254C69.3065 62.7254 68.6456 63.3871 68.6456 64.2053V71.816C68.6456 74.8233 66.1953 77.252 63.1747 77.252H62.4709C59.4503 77.252 57 74.8233 57 71.816L57.0048 57.9749C57.0048 54.4624 59.7175 51.4954 63.5207 51.4954H85.7668C88.7849 51.4954 91.2377 53.9335 91.2377 56.9408V57.2824C91.2377 60.2944 88.7849 62.7254 85.7668 62.7254H70.132Z" fill="white"/>
<path d="M62.5948 37.385H88.7865C91.8733 37.385 94.3837 40.0084 94.3837 43.3672V43.7453C94.3837 47.1198 91.8733 49.8457 88.7865 49.8457L62.5948 49.8457C59.5056 49.8457 57 47.1198 57 43.7453V43.3278C57 39.9611 59.5056 37.385 62.5948 37.385Z" fill="white"/>
</svg>
