<svg width="240" height="114" viewBox="0 0 240 114" fill="none" xmlns="http://www.w3.org/2000/svg">
<path d="M51.2184 69.1C46.9244 69.1 43.4915 68.0537 41.0109 65.9905C38.6831 64.0566 37.2959 60.6679 37.2959 56.9177C37.2959 53.1675 38.7184 49.8141 41.102 47.9302C43.5444 45.9816 46.9479 45 51.2184 45C55.4889 45 58.9041 45.9846 61.3759 47.9214C63.7565 49.8024 65.1791 53.1617 65.1791 56.9089C65.1791 60.6562 63.7771 64.0214 61.4258 65.967C58.9217 68.039 55.4859 69.1 51.2184 69.1ZM51.2184 47.6245C47.8414 47.6245 45.1962 48.3769 43.3563 49.8641C41.6105 51.2778 40.57 53.9141 40.57 56.9177C40.57 59.9214 41.6252 62.6018 43.3916 64.1037C45.252 65.6819 47.8884 66.4813 51.2213 66.4813C54.6042 66.4813 57.2641 65.6878 59.1245 64.1301C60.888 62.64 61.9461 59.9479 61.9461 56.9266C61.9461 53.9052 60.888 51.2601 59.1187 49.8729C57.2611 48.4034 54.6042 47.6481 51.2213 47.6481" fill="white"/>
<path d="M144.844 68.4032C144.511 68.4025 144.192 68.27 143.957 68.0348C143.722 67.7996 143.59 67.4809 143.589 67.1483V46.9307C143.589 46.6 143.72 46.2827 143.954 46.0485C144.187 45.8144 144.504 45.6824 144.835 45.6816H157.767C159.998 45.6816 161.882 46.1578 163.387 47.0953C165.182 48.2063 166.055 49.7816 166.055 51.9124C166.055 53.4701 165.409 54.7427 164.083 55.8036L163.319 56.415L164.154 56.9234C165.938 58.0079 166.799 59.6156 166.799 61.8375C166.799 64.1887 165.741 65.8992 163.566 67.0542C161.908 67.9359 159.81 68.4032 157.326 68.4032H144.844ZM146.687 65.7816H157.741C159.504 65.7816 160.953 65.4672 162.043 64.8411C163.293 64.1563 163.93 63.1541 163.93 61.8698C163.957 61.2521 163.805 60.6398 163.492 60.1065C163.179 59.5732 162.719 59.1415 162.167 58.8632C160.991 58.2225 159.46 57.8962 157.614 57.8962H146.69L146.687 65.7816ZM146.687 55.2717H157.661C159.257 55.2717 160.571 54.9778 161.573 54.4047C162.058 54.157 162.462 53.777 162.739 53.3088C163.017 52.8407 163.155 52.3034 163.14 51.7595C163.155 51.2218 163.018 50.6907 162.743 50.2277C162.469 49.7648 162.07 49.389 161.591 49.1438C160.592 48.5766 159.284 48.2886 157.697 48.2886H146.675L146.687 55.2717Z" fill="white"/>
<path d="M28.949 65.7846H14.1125C14.1099 65.785 14.1073 65.7849 14.1048 65.7842C14.1024 65.7835 14.1 65.7822 14.0981 65.7806C14.0961 65.7789 14.0945 65.7768 14.0935 65.7744C14.0924 65.7721 14.0919 65.7695 14.0919 65.7669V47.2276C14.0919 46.8176 13.929 46.4243 13.6391 46.1344C13.3492 45.8445 12.956 45.6816 12.546 45.6816C12.1359 45.6816 11.7427 45.8445 11.4528 46.1344C11.1629 46.4243 11 46.8176 11 47.2276V67.0395C11 67.2169 11.035 67.3926 11.103 67.5565C11.1709 67.7203 11.2706 67.8692 11.3962 67.9945C11.5217 68.1198 11.6708 68.2191 11.8348 68.2867C11.9988 68.3543 12.1746 68.3889 12.352 68.3885H28.949C29.2963 68.3885 29.6293 68.2506 29.8749 68.005C30.1204 67.7595 30.2584 67.4265 30.2584 67.0792C30.2584 66.7319 30.1204 66.3989 29.8749 66.1534C29.6293 65.9078 29.2963 65.7699 28.949 65.7699" fill="white"/>
<path d="M196.593 65.786H181.762C181.757 65.786 181.753 65.7842 181.75 65.7809C181.746 65.7776 181.744 65.7731 181.744 65.7684V47.229C181.744 46.8186 181.581 46.4251 181.291 46.1349C181.001 45.8447 180.607 45.6816 180.197 45.6816C179.787 45.6816 179.393 45.8447 179.103 46.1349C178.813 46.4251 178.649 46.8186 178.649 47.229V67.041C178.648 67.2194 178.681 67.3964 178.748 67.5618C178.815 67.7271 178.914 67.8776 179.039 68.0044C179.165 68.1312 179.314 68.2319 179.479 68.3006C179.644 68.3693 179.82 68.4047 179.999 68.4047H196.596C196.943 68.4047 197.276 68.2668 197.521 68.0212C197.767 67.7757 197.905 67.4426 197.905 67.0954C197.905 66.7481 197.767 66.4151 197.521 66.1695C197.276 65.924 196.943 65.786 196.596 65.786" fill="white"/>
<path d="M227.568 65.7875H210.903V57.8757H225.452C225.788 57.8597 226.106 57.7148 226.338 57.471C226.571 57.2272 226.701 56.9032 226.701 56.5663C226.701 56.2294 226.571 55.9054 226.338 55.6616C226.106 55.4178 225.788 55.2729 225.452 55.257H210.903V48.2974H227.568C227.915 48.2974 228.247 48.1596 228.493 47.9143C228.738 47.669 228.876 47.3364 228.876 46.9895C228.876 46.6426 228.738 46.31 228.493 46.0647C228.247 45.8194 227.915 45.6816 227.568 45.6816H209.031C208.719 45.6816 208.42 45.8055 208.2 46.026C207.979 46.2464 207.855 46.5455 207.855 46.8573V67.2159C207.855 67.5277 207.979 67.8267 208.2 68.0472C208.42 68.2676 208.719 68.3915 209.031 68.3915H227.568C227.915 68.3915 228.247 68.2537 228.493 68.0084C228.738 67.7631 228.876 67.4305 228.876 67.0836C228.876 66.7367 228.738 66.4041 228.493 66.1588C228.247 65.9135 227.915 65.7758 227.568 65.7758" fill="white"/>
<path d="M132.464 65.9236L120.523 46.9051C120.299 46.532 119.982 46.2232 119.604 46.0088C119.225 45.7943 118.797 45.6816 118.362 45.6816C117.927 45.6816 117.5 45.7943 117.121 46.0088C116.742 46.2232 116.426 46.532 116.202 46.9051L104.252 65.9177C104.117 66.0855 104.018 66.2794 103.962 66.4872C103.905 66.6949 103.893 66.9121 103.924 67.1251C103.955 67.3381 104.03 67.5423 104.144 67.7249C104.259 67.9075 104.409 68.0646 104.587 68.1864C104.764 68.3082 104.965 68.3919 105.176 68.4325C105.388 68.473 105.605 68.4695 105.815 68.422C106.025 68.3746 106.223 68.2843 106.397 68.1568C106.57 68.0293 106.716 67.8674 106.824 67.6811L110.606 61.6414H126.116L129.89 67.6987C129.998 67.885 130.143 68.0469 130.316 68.1744C130.49 68.3019 130.688 68.3922 130.898 68.4397C131.108 68.4871 131.325 68.4906 131.537 68.4501C131.748 68.4096 131.949 68.3258 132.126 68.204C132.304 68.0823 132.455 67.9252 132.569 67.7425C132.683 67.5599 132.758 67.3557 132.789 67.1427C132.821 66.9298 132.808 66.7126 132.751 66.5048C132.695 66.297 132.596 66.1032 132.461 65.9353M118.354 49.3798L124.449 59.0227H112.267L118.354 49.3798Z" fill="white"/>
<path d="M97.8034 45.7112C96.7707 45.0692 95.5255 44.8634 94.3412 45.1389C93.1569 45.4144 92.1304 46.1488 91.4873 47.1807C90.147 49.3204 86.6319 54.9104 86.6319 54.9104C86.6319 54.9104 83.105 49.3262 81.7765 47.1807C81.1322 46.1557 80.1072 45.4286 78.9268 45.1594C77.7465 44.8901 76.5075 45.1008 75.4824 45.745C74.4574 46.3893 73.7303 47.4143 73.461 48.5946C73.1918 49.775 73.4024 51.0139 74.0467 52.0389L83.7457 67.4512C84.0475 67.9488 84.4724 68.3602 84.9795 68.6457C85.4866 68.9312 86.0587 69.0812 86.6407 69.0812C87.2227 69.0812 87.7948 68.9312 88.3019 68.6457C88.809 68.3602 89.2339 67.9488 89.5357 67.4512L99.2347 52.0389C99.8827 51.0116 100.098 49.7698 99.8337 48.5843C99.5694 47.3988 98.8469 46.366 97.8239 45.7112" fill="white"/>
</svg>
