<svg width="240" height="114" viewBox="0 0 240 114" fill="none" xmlns="http://www.w3.org/2000/svg">
<path d="M64.0626 90.9087C64.0626 88.1605 64.0626 84.3319 64.0626 84.3319C64.0626 82.0131 63.1523 79.5566 59.5586 79.5566C57.1476 79.5566 55.8735 80.6602 55.146 81.7647C54.5547 80.3463 52.8935 79.5566 51.2333 79.5566C48.936 79.5566 47.7077 80.7738 47.1387 81.471V79.6462H45V90.9078H47.1377V83.7685C47.5248 82.6198 48.5256 81.2235 50.6643 81.2235C52.3469 81.2235 53.621 82.5061 53.621 84.3983V90.9078H55.6459C55.6459 90.9078 55.6459 84.4667 55.6459 84.3983C55.6459 83.0251 56.67 81.2235 59.013 81.2235C61.1284 81.2235 61.9473 82.6419 61.9473 84.4657V90.9068H64.0626V90.9087Z" fill="white"/>
<path d="M79.7361 90.8401V89.4881C79.668 89.5122 79.1 89.4881 78.9172 89.4881C78.3939 89.4679 78.1887 89.1289 78.1887 88.2276C78.1887 86.4712 78.1887 84.3306 78.1887 83.2945C78.1887 80.7273 76.3457 79.5352 73.071 79.5352C72.8891 79.5352 72.7296 79.5352 72.5477 79.5554V81.0884H72.9796C75.2311 81.0884 76.0053 81.8308 76.0053 82.7995C76.0053 83.2261 75.5501 83.6325 72.5477 83.9262V85.2088C72.6615 85.2088 72.752 85.1866 72.8668 85.1866C74.5727 85.0287 75.6192 84.7601 76.0967 84.3537C76.0734 84.9854 76.0734 86.3133 76.0053 87.1241C75.8915 88.296 74.595 89.3774 72.5477 89.5786V90.9306C73.8666 90.7727 75.1407 90.323 76.2329 89.3542C76.3467 90.2556 76.7561 90.9527 78.0302 90.9527C78.5992 90.9527 79.2819 90.8853 79.7361 90.8401ZM72.5477 79.5554C70.1591 79.668 68.5222 80.6368 67.4991 81.8761L68.7274 82.89C69.5687 81.696 71.0237 81.1789 72.5477 81.0884V79.5554ZM72.5487 83.9271C72.503 83.9271 72.4573 83.9271 72.3892 83.9271C69.5911 84.1736 66.793 84.8727 66.793 87.621C66.793 89.7365 68.2946 90.9989 71.1608 90.9989C71.616 90.9989 72.0935 90.9768 72.5487 90.9315V89.5796C72.3211 89.6017 72.0935 89.6017 71.8436 89.6017C69.842 89.6017 69.0007 88.9488 69.0007 87.6643C69.0007 85.9984 70.5248 85.436 72.5487 85.2098V83.9271Z" fill="white"/>
<path d="M94.0212 87.6421L91.9516 87.3032C91.1784 88.9017 89.9267 89.4871 88.0165 89.4871C85.9916 89.4871 83.8315 88.2498 83.8315 85.3215C83.8315 82.5058 85.6288 81.0431 87.9941 81.0431C89.7915 81.0431 91.2698 81.8087 91.8621 83.1606L93.9999 82.7774C93.249 80.8178 91.1113 79.5352 87.9718 79.5352C84.1729 79.5352 81.6704 81.696 81.6704 85.2772C81.6704 89.1742 84.4462 90.9758 88.0165 90.9758C90.9732 90.9749 93.0885 90.0736 94.0212 87.6421Z" fill="white"/>
<path d="M103.666 81.3583V79.5566C103.598 79.5566 103.507 79.5566 103.462 79.5566C101.21 79.5566 99.845 80.4368 98.9581 81.6741V79.6693H96.8203V90.9087H98.9581V83.8148C99.6408 82.3944 100.915 81.2476 103.03 81.2476C103.212 81.2466 103.53 81.315 103.666 81.3583Z" fill="white"/>
<path d="M118.36 85.2772C118.36 81.5612 115.563 79.5352 111.763 79.5352H111.741V81.021H111.763C114.014 81.021 116.221 82.3258 116.221 85.2772C116.221 87.8222 114.538 89.4881 111.763 89.4881H111.741V90.998H111.763C115.562 90.998 118.36 88.8352 118.36 85.2772ZM111.741 79.5352C107.806 79.5352 105.144 81.7634 105.144 85.2772C105.144 88.9257 107.714 90.998 111.741 90.998V89.4881C109.398 89.4881 107.282 88.1602 107.282 85.2772C107.282 82.5742 109.33 81.021 111.741 81.021V79.5352Z" fill="white"/>
<path d="M140.495 90.9087C140.495 88.1605 140.495 84.3319 140.495 84.3319C140.495 82.0131 139.608 79.5566 135.991 79.5566C133.58 79.5566 132.306 80.6602 131.601 81.7647C131.01 80.3463 129.326 79.5566 127.666 79.5566C125.391 79.5566 124.163 80.7738 123.593 81.471V79.6462H121.455V90.9078H123.593V83.7685C123.958 82.6198 124.958 81.2235 127.119 81.2235C128.78 81.2235 130.054 82.5061 130.054 84.3983V90.9078H132.079C132.079 90.9078 132.079 84.4667 132.079 84.3983C132.079 83.0251 133.125 81.2235 135.467 81.2235C137.583 81.2235 138.379 82.6419 138.379 84.4657V90.9068H140.495V90.9087Z" fill="white"/>
<path d="M156.168 85.7057C156.19 81.7413 153.733 79.5554 149.798 79.5352V80.9757C151.936 80.9979 153.642 81.9444 154.006 84.399H149.798V85.7057H156.168ZM149.798 90.998C152.914 90.998 154.962 89.6229 155.826 87.7086L153.756 87.3494C153.119 88.7447 151.732 89.5353 149.798 89.5353V90.998ZM149.798 79.5352C149.776 79.5352 149.752 79.5352 149.73 79.5352C146.227 79.5352 143.406 81.7634 143.406 85.1192C143.406 89.0615 145.999 90.998 149.752 90.998H149.798V89.5353C149.776 89.5353 149.776 89.5343 149.752 89.5343C147.523 89.5343 145.635 88.2045 145.544 85.7047L149.798 85.7057V84.399L145.59 84.398C145.749 82.3258 147.751 80.9747 149.752 80.9747L149.798 80.9757V79.5352Z" fill="white"/>
<path d="M170.997 90.9076V74.7812H168.881V81.4015C168.222 80.5001 166.698 79.6451 164.695 79.5545V80.997H164.809C166.947 80.997 168.722 82.4376 168.858 83.8801C168.858 83.9706 168.88 84.713 168.88 85.1848C168.88 85.6817 168.858 86.4473 168.858 86.5368C168.813 88.0005 167.243 89.5758 164.831 89.5758C164.786 89.5758 164.74 89.5758 164.694 89.5758V90.9731C166.924 90.9057 168.334 89.9591 168.903 89.0809V90.9057H170.997V90.9076ZM164.695 79.5545C164.605 79.5545 164.491 79.5545 164.377 79.5545C161.102 79.5545 158.372 81.6268 158.372 85.2532C158.372 88.947 160.943 90.974 164.423 90.974H164.695V89.5768C162.489 89.5335 160.534 88.2037 160.534 85.2532C160.534 82.7987 162.034 81.0423 164.695 80.997V79.5545Z" fill="white"/>
<path d="M176.846 77.9577V75.7969H174.639V77.9577H176.846ZM176.823 90.9092V79.6467H174.684V90.9083L176.823 90.9092Z" fill="white"/>
<path d="M192.495 90.8401V89.4881C192.428 89.5122 191.859 89.4881 191.676 89.4881C191.153 89.4679 190.948 89.1289 190.948 88.2276C190.948 86.4712 190.948 84.3306 190.948 83.2945C190.948 80.7273 189.105 79.5352 185.83 79.5352C185.647 79.5352 185.466 79.5352 185.307 79.5554V81.0884H185.738C187.99 81.0884 188.763 81.8308 188.763 82.7995C188.763 83.2261 188.308 83.6325 185.306 83.9262V85.2088C185.397 85.2088 185.511 85.1866 185.625 85.1866C187.33 85.0287 188.376 84.7601 188.854 84.3537C188.831 84.9854 188.831 86.3133 188.762 87.1241C188.649 88.296 187.353 89.3774 185.305 89.5786V90.9306C186.623 90.7727 187.897 90.323 188.99 89.3542C189.103 90.2556 189.513 90.9527 190.787 90.9527C191.358 90.9527 192.041 90.8853 192.495 90.8401ZM185.307 79.5554C182.919 79.668 181.281 80.6368 180.258 81.8761L181.486 82.89C182.328 81.696 183.783 81.1789 185.308 81.0884V79.5554H185.307ZM185.308 83.9271C185.262 83.9271 185.216 83.9271 185.148 83.9271C182.351 84.1736 179.553 84.8727 179.553 87.621C179.553 89.7365 181.053 90.9989 183.92 90.9989C184.375 90.9989 184.852 90.9768 185.308 90.9315V89.5796C185.081 89.6017 184.852 89.6017 184.602 89.6017C182.6 89.6017 181.759 88.9488 181.759 87.6643C181.759 85.9984 183.283 85.436 185.307 85.2098L185.308 83.9271Z" fill="white"/>
<path d="M131.252 29.0785C136.301 34.0781 136.301 42.1639 131.252 47.1635L108.413 69.7521C103.363 74.7517 95.1963 74.7517 90.1466 69.7521C85.097 64.7535 85.097 56.6677 90.1466 51.6903L112.985 29.0785C118.034 24.078 126.2 24.078 131.252 29.0785Z" fill="white"/>
<path d="M167.853 29.2367L190.691 51.5326C195.741 56.5322 195.741 64.618 190.691 69.6186C185.641 74.6162 177.452 74.6162 172.401 69.6186L158.708 55.7667L144.99 69.6186C139.985 74.6162 131.797 74.6162 126.747 69.6186C121.697 64.618 121.697 56.5322 126.747 51.5326L149.564 29.2367C154.614 24.2362 162.803 24.2362 167.853 29.2367Z" fill="white"/>
<path d="M180.806 26.5886C179.611 26.5886 178.59 27.0145 177.742 27.8664C176.9 28.7136 176.478 29.7372 176.478 30.9371C176.478 32.1461 176.897 33.1766 177.735 34.0284C178.578 34.8803 179.602 35.3062 180.806 35.3062C182.011 35.3062 183.034 34.8803 183.877 34.0284C184.72 33.1766 185.141 32.1461 185.141 30.9371C185.141 29.7372 184.72 28.7136 183.877 27.8664C183.03 27.0145 182.006 26.5886 180.806 26.5886ZM185.855 30.9371C185.855 32.3339 185.363 33.5269 184.378 34.5162C183.394 35.5054 182.203 36 180.806 36C179.409 36 178.221 35.5054 177.241 34.5162C176.265 33.5315 175.778 32.3385 175.778 30.9371C175.778 29.5494 176.27 28.3633 177.255 27.3786C178.235 26.3985 179.418 25.9085 180.806 25.9085C182.203 25.9085 183.394 26.3985 184.378 27.3786C185.363 28.3587 185.855 29.5448 185.855 30.9371ZM182.125 29.8379C182.125 29.4349 182.001 29.1647 181.754 29.0273C181.511 28.8899 181.12 28.8212 180.579 28.8212H179.748V30.8272H180.628C181.04 30.8272 181.349 30.786 181.555 30.7035C181.935 30.5524 182.125 30.2639 182.125 29.8379ZM180.71 28.1549C181.397 28.1549 181.901 28.2213 182.221 28.3541C182.794 28.5923 183.08 29.0594 183.08 29.7555C183.08 30.2501 182.899 30.6142 182.537 30.8478C182.345 30.9714 182.077 31.0607 181.734 31.1157C182.169 31.1844 182.487 31.3653 182.688 31.6584C182.89 31.9515 182.991 32.2377 182.991 32.5171V32.9224C182.991 33.0506 182.995 33.188 183.004 33.3346C183.014 33.4811 183.03 33.5773 183.053 33.6231L183.087 33.6918H182.173C182.169 33.6735 182.164 33.6552 182.159 33.6368C182.155 33.6185 182.15 33.5979 182.146 33.575L182.125 33.3964V32.9568C182.125 32.3156 181.951 31.892 181.603 31.6859C181.397 31.5668 181.035 31.5073 180.518 31.5073H179.748V33.6918H178.773V28.1549H180.71Z" fill="white"/>
</svg>
