<svg width="240" height="114" viewBox="0 0 240 114" fill="none" xmlns="http://www.w3.org/2000/svg">
<path d="M161.572 57C161.572 82.2328 140.558 103 115.024 103C89.4908 103 68.4771 82.2317 68.4771 57C68.4771 31.7656 88.9994 11 115.024 11C140.065 11 161.572 31.7668 161.572 57Z" fill="black"/>
<path d="M125.579 81.0279C145.639 88.9869 142.158 68.8739 131.465 53.4735C125.405 44.7487 117.501 37.4798 112.516 33.9715C95.9868 22.3356 85.7828 29.3929 97.4549 52.3406C101.229 59.76 106.076 64.7676 109.862 69.4876C112.753 73.091 118.384 74.8954 116.4 76.6056C114.165 78.5337 108.752 70.0291 108.752 70.0291C104.754 65.3783 100.944 60.4163 97.0165 53.6072C88.0436 38.0536 89.3373 22.1793 105.578 29.0941C119.361 34.9654 132.526 51.4327 137.819 63.127C140.264 68.5263 146.929 89.8921 125.7 81.2541" fill="white"/>
<path fill-rule="evenodd" clip-rule="evenodd" d="M64.0962 70.9171C72.8417 65.1191 81.1335 61.3756 95.244 56.7364C115.072 50.2157 129.996 45.8327 148.306 36.6707C156.502 32.5705 170.723 23.375 175.81 15.3809C174.286 18.4747 169.571 24.4965 167.436 27.1602C142.592 58.127 89.6722 56.3711 64.4454 71.238" fill="#D4D7D9"/>
<path d="M76.8053 48.9365C84.8246 48.9984 84.0379 48.9207 84.1316 49.0131C84.2718 49.0131 90.5347 59.6206 90.5347 59.7119C90.5347 59.7573 90.4879 55.9424 90.4879 51.1714C90.4879 50.6203 88.9462 49.0133 88.9923 49.0133C91.2812 49.0133 94.273 49.0593 94.273 49.0593C93.152 50.3451 92.9281 50.2396 92.9188 51.0341C92.8871 53.5892 92.8576 58.311 92.9188 63.6152C92.9275 64.4102 93.5264 64.7172 94.5078 66.0949H87.1693C84.7857 62.192 80.4179 54.8704 80.4396 54.891C80.4732 54.9245 80.3456 59.4836 80.4853 63.1559C80.5326 64.3696 81.0934 64.7628 82.1222 65.8654C82.1222 65.8654 83.3056 65.8342 76.373 65.9109C78.4762 64.8089 78.1968 63.4316 78.1958 63.3857C78.1202 58.3109 78.1802 53.9722 78.1802 51.1712C78.1802 50.7122 78.1484 50.7575 76.7002 49.0132" fill="white"/>
<path d="M101.882 56.7743C102.556 54.4755 103.131 52.4208 103.404 51.0814C103.45 50.8516 102.89 50.0254 102.002 49.1986L101.939 49.0703C106.221 49.084 110.694 49.1066 110.694 49.1066C111.863 51.9077 114.527 59.7588 116.536 64.5805C117.068 65.8549 117.985 66.0955 117.985 66.0955C114.34 66.0501 107.575 66.0808 107.61 66.0501C109.433 64.442 109.199 64.442 108.404 62.101H102.703C101.535 64.7635 103.067 66.0136 103.263 66.0039C101.966 66.0697 97.562 66.0039 97.562 66.0039C99.9456 64.3503 99.8049 63.8458 99.8049 63.8458C100.46 61.5549 101.218 59.0452 101.883 56.773L104.222 56.7733C103.719 58.3584 103.217 59.9421 103.217 59.9421H107.751L105.227 53.6052C105.227 53.6052 104.724 55.1896 104.222 56.7733L101.883 56.773" fill="white"/>
<path d="M141.048 57.0015C141.72 54.7032 142.296 52.648 142.568 51.3078C142.614 51.0791 142.053 50.253 141.166 49.4255L141.103 49.2979C145.386 49.3115 149.86 49.3342 149.86 49.3342C151.027 52.1352 153.692 59.9868 155.701 64.808C156.232 66.083 157.149 66.3236 157.149 66.3236C153.505 66.2771 146.74 66.3089 146.775 66.2771C148.598 64.6707 148.364 64.6707 147.57 62.3287H141.867C140.699 64.9918 142.231 66.2413 142.427 66.2324C141.13 66.2976 136.726 66.2324 136.726 66.2324C139.109 64.5788 138.969 64.0737 138.969 64.0737C139.624 61.7824 140.383 59.2733 141.048 57.0015L143.386 57.0017C142.883 58.5865 142.382 60.1708 142.382 60.1708H146.915L144.39 53.834C144.39 53.834 143.889 55.4178 143.386 57.0017L141.048 57.0015Z" fill="white"/>
<path d="M133.676 53.2398C133.582 49.9787 133.676 48.9229 133.676 48.9229C132.226 50.0714 132.957 49.9249 129.33 49.3364C118.875 47.6399 118.078 57.239 123.767 59.3922C128.543 61.2001 130.236 61.5542 129.515 63.2487C129.282 63.8008 124.936 65.8209 120.45 61.7341L120.542 67.4278C121.103 66.8598 122.646 65.8209 122.646 65.8209C122.692 65.8209 127.509 67.9079 131.852 65.7283C138.537 62.377 135.201 56.9521 128.067 54.8004C122.131 53.0094 127.74 48.8307 133.628 53.2853" fill="white"/>
<path d="M116.175 16.1198C116.175 16.3252 116.004 16.4937 115.795 16.4937C115.587 16.4937 115.416 16.3252 115.416 16.1198C115.416 15.9162 115.587 15.7471 115.795 15.7471C116.004 15.7471 116.175 15.9162 116.175 16.1198Z" fill="white"/>
<path d="M118.805 21.772C118.805 22.0239 118.593 22.231 118.338 22.231C118.081 22.231 117.87 22.0238 117.87 21.772C117.87 21.5206 118.081 21.3135 118.338 21.3135C118.593 21.3135 118.805 21.5206 118.805 21.772Z" fill="white"/>
<path d="M125.636 31.0123C125.636 31.2638 125.426 31.4714 125.169 31.4714C124.913 31.4714 124.702 31.2638 124.702 31.0123C124.702 30.7605 124.898 30.5527 125.155 30.5527C125.411 30.5527 125.636 30.7605 125.636 31.0123Z" fill="white"/>
<path d="M114.655 24.9594C114.655 25.1642 114.485 25.3322 114.276 25.3322C114.067 25.3322 113.896 25.1642 113.896 24.9594C113.896 24.755 114.067 24.5859 114.276 24.5859C114.485 24.5859 114.655 24.755 114.655 24.9594Z" fill="white"/>
<path d="M118.748 27.0829C118.748 27.2865 118.577 27.4556 118.369 27.4556C118.161 27.4556 117.989 27.2865 117.989 27.0829C117.989 26.8786 118.161 26.71 118.369 26.71C118.577 26.71 118.748 26.8786 118.748 27.0829Z" fill="white"/>
<path d="M113.432 21.1403C113.432 21.3923 113.221 21.5993 112.965 21.5993C112.709 21.5993 112.498 21.3923 112.498 21.1403C112.498 20.8884 112.709 20.6807 112.965 20.6807C113.221 20.6807 113.432 20.8884 113.432 21.1403Z" fill="white"/>
<path d="M107.238 24.8422C107.238 25.0471 107.067 25.2156 106.858 25.2156C106.649 25.2156 106.478 25.0471 106.478 24.8422C106.478 24.6378 106.649 24.4688 106.858 24.4688C107.067 24.4688 107.238 24.6378 107.238 24.8422Z" fill="white"/>
<path d="M108.345 25.589C108.345 25.7945 108.174 25.963 107.965 25.963C107.756 25.963 107.584 25.7945 107.584 25.589C107.584 25.3847 107.756 25.2168 107.965 25.2168C108.174 25.2168 108.345 25.3847 108.345 25.589Z" fill="white"/>
<path d="M109.455 26.3341C109.455 26.5395 109.284 26.708 109.076 26.708C108.867 26.708 108.695 26.5395 108.695 26.3341C108.695 26.1304 108.867 25.9619 109.076 25.9619C109.284 25.9619 109.455 26.1304 109.455 26.3341Z" fill="white"/>
<path d="M107.763 27.7702C107.763 27.975 107.59 28.1436 107.383 28.1436C107.174 28.1436 107.002 27.975 107.002 27.7702C107.002 27.566 107.174 27.3975 107.383 27.3975C107.59 27.3975 107.763 27.566 107.763 27.7702Z" fill="white"/>
<path d="M98.9401 33.8559C98.9401 34.0607 98.7682 34.2287 98.5599 34.2287C98.3516 34.2287 98.1797 34.0607 98.1797 33.8559C98.1797 33.6511 98.3516 33.4824 98.5599 33.4824C98.7682 33.4824 98.9401 33.6511 98.9401 33.8559Z" fill="white"/>
<path d="M100.575 35.8089C100.575 36.0133 100.403 36.1818 100.195 36.1818C99.9869 36.1818 99.8149 36.0133 99.8149 35.8089C99.8149 35.6035 99.9869 35.4355 100.195 35.4355C100.403 35.4355 100.575 35.6035 100.575 35.8089Z" fill="white"/>
<path d="M99.277 67.3187C99.277 67.5236 99.1056 67.6916 98.8972 67.6916C98.6889 67.6916 98.5176 67.5236 98.5176 67.3187C98.5176 67.1144 98.6889 66.9453 98.8972 66.9453C99.1056 66.9453 99.277 67.1144 99.277 67.3187Z" fill="white"/>
<path d="M99.5099 76.0118C99.5099 76.2637 99.2987 76.4702 99.0425 76.4702C98.7863 76.4702 98.5752 76.2637 98.5752 76.0118C98.5752 75.7597 98.7863 75.5527 99.0425 75.5527C99.2987 75.5527 99.5099 75.7597 99.5099 76.0118Z" fill="white"/>
<path d="M94.4868 80.4633C94.4868 80.667 94.3154 80.8361 94.1077 80.8361C93.8995 80.8361 93.7275 80.667 93.7275 80.4633C93.7275 80.2579 93.8995 80.0898 94.1077 80.0898C94.3154 80.0898 94.4868 80.2579 94.4868 80.4633Z" fill="white"/>
<path d="M88.467 82.2682C88.467 82.5201 88.2546 82.7267 87.9991 82.7267C87.7428 82.7267 87.5317 82.5201 87.5317 82.2682C87.5317 82.0157 87.7428 81.8086 87.9991 81.8086C88.2546 81.8086 88.467 82.0157 88.467 82.2682Z" fill="white"/>
<path d="M87.2442 78.2506C87.2442 78.5014 87.0331 78.7091 86.7774 78.7091C86.5213 78.7091 86.3101 78.5014 86.3101 78.2506C86.3101 77.9982 86.5213 77.791 86.7774 77.791C87.0331 77.791 87.2442 77.9982 87.2442 78.2506Z" fill="white"/>
<path d="M86.5384 80.8069C86.5384 81.0118 86.3665 81.1797 86.1582 81.1797C85.9499 81.1797 85.7778 81.0118 85.7778 80.8069C85.7778 80.6027 85.9499 80.4336 86.1582 80.4336C86.3665 80.4336 86.5384 80.6027 86.5384 80.8069Z" fill="white"/>
<path d="M82.0416 78.6835C82.0416 78.8877 81.8703 79.0568 81.6626 79.0568C81.4537 79.0568 81.2822 78.8877 81.2822 78.6835C81.2822 78.4792 81.4537 78.3105 81.6626 78.3105C81.8703 78.3105 82.0416 78.4792 82.0416 78.6835Z" fill="white"/>
<path d="M97.7569 85.8577C97.7569 86.0627 97.5999 86.2312 97.3922 86.2312C97.184 86.2312 96.9976 86.0627 96.9976 85.8577C96.9976 85.6535 97.1695 85.4844 97.3772 85.4844C97.586 85.4844 97.7569 85.6535 97.7569 85.8577Z" fill="white"/>
<path d="M102.493 82.4429C102.493 82.6953 102.297 82.9025 102.04 82.9025C101.784 82.9025 101.558 82.6953 101.558 82.4429C101.558 82.192 101.769 81.9844 102.025 81.9844C102.282 81.9844 102.493 82.192 102.493 82.4429Z" fill="white"/>
<path d="M103.033 86.8312C103.033 87.036 102.846 87.2052 102.639 87.2052C102.43 87.2052 102.259 87.036 102.259 86.8312C102.259 86.6269 102.43 86.459 102.639 86.459C102.846 86.459 103.033 86.6269 103.033 86.8312Z" fill="white"/>
<path d="M122.482 82.6423C122.482 82.8467 122.311 83.0158 122.103 83.0158C121.894 83.0158 121.722 82.8467 121.722 82.6423C121.722 82.4375 121.894 82.2695 122.103 82.2695C122.311 82.2695 122.482 82.4375 122.482 82.6423Z" fill="white"/>
<path d="M113.429 85.7972C113.429 86.002 113.258 86.1699 113.05 86.1699C112.842 86.1699 112.67 86.002 112.67 85.7972C112.67 85.5929 112.842 85.4238 113.05 85.4238C113.258 85.4238 113.429 85.5929 113.429 85.7972Z" fill="white"/>
<path d="M137.792 90.3343C137.792 90.5386 137.62 90.7071 137.413 90.7071C137.204 90.7071 137.032 90.5386 137.032 90.3343C137.032 90.1295 137.204 89.9609 137.413 89.9609C137.62 89.9609 137.792 90.1295 137.792 90.3343Z" fill="white"/>
<path d="M139.777 72.6842C139.777 72.9361 139.567 73.1438 139.31 73.1438C139.053 73.1438 138.843 72.9361 138.843 72.6842C138.843 72.4322 139.053 72.2246 139.31 72.2246C139.567 72.2246 139.777 72.4322 139.777 72.6842Z" fill="white"/>
<path d="M136.038 75.1814C136.038 75.3857 135.866 75.5548 135.657 75.5548C135.449 75.5548 135.278 75.3857 135.278 75.1814C135.278 74.9765 135.449 74.8086 135.657 74.8086C135.866 74.8086 136.038 74.9765 136.038 75.1814Z" fill="white"/>
<path d="M139.72 75.9004C139.72 76.1523 139.509 76.36 139.253 76.36C138.996 76.36 138.785 76.1523 138.785 75.9004C138.785 75.649 138.996 75.4414 139.253 75.4414C139.509 75.4414 139.72 75.649 139.72 75.9004Z" fill="white"/>
<path d="M136.038 80.3481C136.038 80.5523 135.866 80.7209 135.657 80.7209C135.449 80.7209 135.278 80.5523 135.278 80.3481C135.278 80.1433 135.449 79.9746 135.657 79.9746C135.866 79.9746 136.038 80.1433 136.038 80.3481Z" fill="white"/>
<path d="M145.56 70.1872C145.56 70.392 145.388 70.5607 145.18 70.5607C144.973 70.5607 144.801 70.392 144.801 70.1872C144.801 69.9824 144.973 69.8145 145.18 69.8145C145.388 69.8145 145.56 69.9824 145.56 70.1872Z" fill="white"/>
<path d="M146.479 72.4526C146.479 72.7051 146.284 72.9122 146.027 72.9122C145.77 72.9122 145.545 72.7051 145.545 72.4526C145.545 72.2006 145.756 71.9941 146.012 71.9941C146.268 71.9941 146.479 72.2006 146.479 72.4526Z" fill="white"/>
<path d="M153.038 75.151C153.038 75.4029 152.829 75.61 152.571 75.61C152.314 75.61 152.104 75.4029 152.104 75.151C152.104 74.8997 152.314 74.6914 152.571 74.6914C152.829 74.6914 153.038 74.8997 153.038 75.151Z" fill="white"/>
<path d="M146.378 79.9476C146.378 80.1518 146.205 80.3205 145.997 80.3205C145.789 80.3205 145.617 80.1518 145.617 79.9476C145.617 79.7422 145.789 79.5742 145.997 79.5742C146.205 79.5742 146.378 79.7422 146.378 79.9476Z" fill="white"/>
<path d="M150.584 76.0433C150.584 76.2481 150.412 76.416 150.205 76.416C149.997 76.416 149.825 76.2481 149.825 76.0433C149.825 75.8384 149.997 75.6699 150.205 75.6699C150.412 75.6699 150.584 75.8384 150.584 76.0433Z" fill="white"/>
<path d="M149.809 82.0687C149.809 82.2736 149.637 82.4416 149.43 82.4416C149.22 82.4416 149.049 82.2736 149.049 82.0687C149.049 81.8644 149.22 81.6953 149.43 81.6953C149.637 81.6953 149.809 81.8644 149.809 82.0687Z" fill="white"/>
<path d="M151.59 72.0522C151.59 72.3671 151.326 72.6258 151.006 72.6258C150.686 72.6258 150.422 72.3671 150.422 72.0522C150.422 71.7372 150.686 71.4785 151.006 71.4785C151.326 71.4785 151.59 71.7372 151.59 72.0522Z" fill="white"/>
<path d="M151.01 70.3057L150.836 71.8838L149.243 72.0563L150.848 72.2277L151.024 73.8641L151.2 72.2277L152.777 72.0274L151.186 71.8838L151.01 70.3057" fill="white"/>
<path d="M147.5 82.0385C147.5 82.3534 147.237 82.6121 146.917 82.6121C146.596 82.6121 146.332 82.3534 146.332 82.0385C146.332 81.7236 146.596 81.4648 146.917 81.4648C147.237 81.4648 147.5 81.7236 147.5 82.0385Z" fill="white"/>
<path d="M146.921 80.2891L146.745 81.8672L145.153 82.0397L146.759 82.2123L146.935 83.8475L147.111 82.2123L148.687 82.0113L147.095 81.8672L146.921 80.2891" fill="white"/>
<path d="M103.923 34.6293C103.923 34.9443 103.66 35.203 103.339 35.203C103.018 35.203 102.755 34.9442 102.755 34.6293C102.755 34.3144 103.018 34.0557 103.339 34.0557C103.66 34.0557 103.923 34.3144 103.923 34.6293Z" fill="white"/>
<path d="M103.337 32.8779L103.161 34.456L101.569 34.6286L103.176 34.8L103.351 36.4364L103.526 34.8L105.104 34.6002L103.511 34.456L103.337 32.8779" fill="white"/>
<path d="M125.657 20.7393C125.657 21.0542 125.393 21.3135 125.072 21.3135C124.752 21.3135 124.49 21.0542 124.49 20.7393C124.49 20.4243 124.752 20.165 125.072 20.165C125.393 20.165 125.657 20.4243 125.657 20.7393Z" fill="white"/>
<path d="M125.07 18.9863L124.896 20.565L123.304 20.7375L124.911 20.91L125.085 22.546L125.261 20.91L126.838 20.7085L125.245 20.565L125.07 18.9863" fill="white"/>
<path d="M99.2305 91.2266C99.2305 91.5415 98.9668 91.8003 98.6466 91.8003C98.3252 91.8003 98.0615 91.5415 98.0615 91.2266C98.0615 90.9122 98.3252 90.6523 98.6466 90.6523C98.9668 90.6523 99.2305 90.9122 99.2305 91.2266Z" fill="white"/>
<path d="M98.6603 89.4707L98.4856 91.0493L96.8936 91.2218L98.5001 91.3938L98.6754 93.0298L98.8503 91.3938L100.428 91.1935L98.8358 91.0493L98.6603 89.4707Z" fill="white"/>
<path fill-rule="evenodd" clip-rule="evenodd" d="M175.809 15.3809C168.754 36.2039 140.493 52.2833 116.703 67.6338C102.351 76.8963 88.1018 87.5582 78.2922 96.6308C75.7065 99.0233 78.8191 95.7364 77.8281 96.7465C91.5179 81.0632 107.266 71.7219 115.968 65.8423C130.685 55.8944 139.056 53.3872 164.447 30.1179" fill="#D4D7D9"/>
<path d="M69.3101 67.9521C66.9342 68.9488 64.8058 69.9337 63 70.895L64.0988 71.2379C65.678 70.4038 67.5741 69.534 69.5714 68.7673" fill="#C2C2C2"/>
<path fill-rule="evenodd" clip-rule="evenodd" d="M83.0446 89.8574C80.8295 92.0606 78.54 94.4124 76.2435 96.8775L76.1421 98.6193C78.2447 96.1512 80.8277 93.4854 83.8087 90.657" fill="#D4D7D9"/>
<path d="M125.641 80.9573C145.623 89.1609 142.155 68.4298 131.504 52.5562C125.467 43.5632 118.022 36.4292 112.628 32.4548C106.33 27.8135 105.715 27.4287 105.715 27.4287C119.78 34.0913 132.558 50.4534 137.831 62.5075C140.266 68.0727 146.906 90.0951 125.758 81.1916" fill="white"/>
</svg>
