<svg width="240" height="114" viewBox="0 0 240 114" fill="none" xmlns="http://www.w3.org/2000/svg">
<path d="M59.9765 70.3019C60.0211 72.3209 60.3529 72.9961 60.857 73.1731C61.282 73.3099 61.7264 73.3719 62.1715 73.3567C62.4459 73.3567 62.5991 73.4091 62.5991 73.5665C62.5991 73.7238 62.3693 73.8221 62.0184 73.8221C60.3785 73.8221 59.3703 73.75 58.8917 73.75C58.662 73.75 57.4751 73.8221 56.167 73.8221C55.8352 73.8221 55.6055 73.8221 55.6055 73.5665C55.6055 73.3108 55.7586 73.3567 56.0139 73.3567C56.396 73.3626 56.7774 73.3208 57.1497 73.2321C57.7878 73.0224 57.9026 72.2685 57.9282 70.0135L58.1643 54.674C58.1643 54.1496 58.2408 53.7891 58.4897 53.7891C58.7385 53.7891 58.9938 54.1234 59.4277 54.5954C59.7276 54.9297 63.5626 59.1841 67.2444 62.9141C68.9609 64.6774 72.3493 68.4074 72.7959 68.8138H72.9108L72.6555 57.1913C72.6555 55.6114 72.4067 55.1198 71.8132 54.8576C71.375 54.7345 70.9206 54.6836 70.4669 54.7068C70.1669 54.7068 70.0648 54.6216 70.0648 54.4708C70.0648 54.32 70.3456 54.2348 70.7029 54.2348C72.0238 54.2348 73.2554 54.3135 73.7531 54.3135C74.0402 54.3135 74.9846 54.2348 76.2353 54.2348C76.5607 54.2348 76.8096 54.2348 76.8096 54.4708C76.8096 54.7068 76.6564 54.7068 76.3501 54.7068C76.0993 54.6976 75.8483 54.7218 75.6036 54.7789C74.8889 54.9887 74.6975 55.5328 74.6592 56.9815L74.3912 73.337C74.3912 73.9073 74.2955 74.1433 74.0594 74.1433C73.8233 74.1433 73.4851 73.8614 73.1979 73.573C71.6091 72.0194 68.3803 68.6237 65.7577 65.9557C63.0074 63.1501 60.2062 59.9117 59.7531 59.4004H59.6957L59.9765 70.3019Z" fill="white"/>
<path d="M101.824 64.5215C101.824 58.7135 98.5698 55.1147 94.4349 55.1147C91.5316 55.1147 88.2198 56.7731 88.2198 63.2236C88.2198 68.6186 91.1296 72.8927 95.9728 72.8927C97.7276 72.9254 101.824 72.0143 101.824 64.5215ZM84.7422 64.0299C84.7422 59.5985 87.5881 53.8691 95.1688 53.8691C101.435 53.8691 105.378 57.6253 105.378 63.5645C105.378 69.5036 101.339 74.1906 94.9327 74.1906C87.6838 74.1906 84.7613 68.6186 84.7613 64.0299" fill="white"/>
<path d="M113.589 56.7713C113.008 55.3422 112.587 55.0603 111.675 54.8047C111.354 54.7304 111.026 54.6973 110.698 54.7064C110.481 54.7064 110.405 54.6211 110.405 54.4704C110.405 54.3196 110.679 54.2344 111.043 54.2344C112.37 54.2344 113.812 54.313 114.699 54.313C115.337 54.313 116.543 54.2344 117.794 54.2344C118.1 54.2344 118.375 54.2868 118.375 54.4704C118.375 54.6539 118.215 54.7064 118.005 54.7064C117.661 54.6715 117.315 54.7327 117.003 54.8834C116.839 55.0126 116.746 55.2154 116.754 55.4274C116.861 56.1173 117.056 56.7896 117.335 57.4268L121.68 69.1936H121.776C122.873 66.342 126.147 57.9971 126.759 56.2862C126.873 55.9768 126.944 55.6524 126.97 55.3226C126.98 55.1085 126.857 54.9114 126.664 54.8309C126.331 54.7368 125.987 54.6948 125.643 54.7064C125.413 54.7064 125.222 54.7064 125.222 54.4966C125.222 54.2868 125.451 54.2344 125.93 54.2344C127.206 54.2344 128.24 54.313 128.565 54.313C129.012 54.313 130.186 54.2344 130.933 54.2344C131.283 54.2344 131.475 54.2868 131.475 54.4704C131.475 54.6539 131.322 54.7064 131.067 54.7064C130.635 54.6816 130.207 54.7888 129.835 55.0145C129.51 55.2439 129.127 55.67 128.45 57.3482C127.455 59.7802 126.778 61.183 125.413 64.3689C123.805 68.1448 122.605 70.957 122.069 72.2681C121.431 73.7692 121.265 74.1888 120.895 74.1888C120.525 74.1888 120.436 73.8217 119.957 72.6089L113.576 56.7713" fill="white"/>
<path d="M145.371 65.7659C145.505 65.7659 145.524 65.6872 145.505 65.6085L143.24 59.2106C143.24 59.1057 143.182 58.9746 143.106 58.9746C143.029 58.9746 142.991 59.1057 142.972 59.2106L140.643 65.5823C140.643 65.6872 140.643 65.7659 140.738 65.7659H145.371ZM140.266 67.0769C140.132 67.0769 140.094 67.1294 140.036 67.2867L138.639 70.9577C138.434 71.4601 138.311 71.9939 138.275 72.5375C138.275 73.0029 138.486 73.3373 139.277 73.3373H139.66C139.947 73.3373 140.024 73.3897 140.024 73.547C140.024 73.7044 139.89 73.8027 139.602 73.8027C138.792 73.8027 137.688 73.7306 136.929 73.7306C136.661 73.7306 135.257 73.8027 133.949 73.8027C133.617 73.8027 133.464 73.7502 133.464 73.547C133.464 73.3438 133.579 73.3373 133.77 73.3373C134.035 73.3337 134.299 73.3162 134.561 73.2848C135.716 73.134 136.195 72.2491 136.699 70.9577L143.029 54.7005C143.335 53.9466 143.488 53.6582 143.737 53.6582C143.986 53.6582 144.12 53.8942 144.375 54.4907C144.969 55.9132 149.008 66.4935 150.622 70.4267C151.586 72.7604 152.32 73.1275 152.856 73.252C153.205 73.3231 153.559 73.3583 153.915 73.3569C154.106 73.3569 154.24 73.3569 154.24 73.5667C154.24 73.7765 154.011 73.8224 153.066 73.8224C152.122 73.8224 150.316 73.8224 148.319 73.7699C147.853 73.7699 147.547 73.7699 147.547 73.5667C147.547 73.3635 147.642 73.3569 147.891 73.3307C148.008 73.2972 148.103 73.2097 148.148 73.094C148.193 72.9784 148.183 72.8477 148.121 72.7407L146.105 67.2408C146.082 67.1216 145.973 67.0411 145.856 67.0573H140.234" fill="white"/>
<path d="M164.892 63.7951C164.892 64.0835 164.949 64.1884 165.128 64.2605C165.75 64.4435 166.395 64.5319 167.042 64.5227C167.67 64.6092 168.307 64.4527 168.829 64.0835C169.582 63.5132 170.316 62.3202 170.316 60.1962C170.316 56.5121 167.948 55.4502 166.487 55.4502C166.036 55.4283 165.583 55.4635 165.141 55.5551C164.962 55.6075 164.904 55.7124 164.904 55.9156L164.892 63.7951ZM161.931 61.7826C161.931 57.8494 161.931 57.1152 161.873 56.2893C161.816 55.4633 161.625 54.9782 160.795 54.8078C160.466 54.7517 160.133 54.7276 159.8 54.7357C159.525 54.7357 159.372 54.6767 159.372 54.4997C159.372 54.3227 159.544 54.2637 159.934 54.2637C161.28 54.2637 162.856 54.3423 163.392 54.3423C164.241 54.3423 166.161 54.2637 166.953 54.2637C168.529 54.2637 170.226 54.421 171.592 55.3781C172.666 56.2265 173.298 57.5386 173.302 58.9311C173.302 60.8518 172.511 62.6086 169.971 64.7391C172.223 67.6431 173.953 69.944 175.459 71.55C176.862 73.0578 177.896 73.2413 178.266 73.3134C178.5 73.3605 178.737 73.3868 178.975 73.3921C179.185 73.3921 179.287 73.4707 179.287 73.6019C179.287 73.733 179.109 73.8575 178.802 73.8575H176.397C174.993 73.8575 174.361 73.733 173.704 73.3659C172.625 72.7759 171.668 71.55 170.245 69.5572C169.243 68.1347 168.089 66.3713 167.763 65.9846C167.644 65.852 167.472 65.7841 167.297 65.801L165.109 65.7158C164.975 65.7158 164.892 65.7683 164.892 65.919V66.2861C164.892 68.6985 164.892 70.7437 165.032 71.8319C165.109 72.5858 165.262 73.143 166.008 73.2544C166.417 73.3112 166.828 73.3462 167.24 73.3593C167.45 73.3593 167.546 73.438 167.546 73.5691C167.546 73.7002 167.374 73.8247 167.048 73.8247C165.587 73.8247 163.724 73.7526 163.335 73.7526C162.945 73.7526 161.28 73.8247 160.259 73.8247C159.934 73.8247 159.755 73.7526 159.755 73.5691C159.755 73.3855 159.857 73.3593 160.163 73.3593C160.466 73.3584 160.768 73.3233 161.063 73.2544C161.567 73.1561 161.701 72.5989 161.797 71.8319C161.931 70.7437 161.931 68.6985 161.931 66.3123V61.7826Z" fill="white"/>
<path d="M188.27 55.685L184.524 55.7833C183.056 55.8423 182.444 55.9668 182.061 56.5372C181.872 56.8157 181.728 57.1233 181.633 57.4483C181.595 57.6516 181.519 57.7564 181.365 57.7564C181.212 57.7564 181.136 57.6253 181.136 57.3435C181.136 56.9305 181.614 54.5706 181.653 54.3608C181.729 54.0265 181.806 53.8691 181.965 53.8691C182.319 54.0051 182.684 54.1082 183.056 54.1772C183.79 54.2559 184.754 54.3083 185.577 54.3083H195.563C196.378 54.315 197.191 54.2292 197.988 54.0527C198.16 54.0527 198.179 54.2035 198.179 54.5968C198.179 55.1409 198.103 56.9305 198.103 57.5991C198.103 57.8613 198.045 58.0121 197.892 58.0121C197.739 58.0121 197.643 57.8875 197.605 57.4942V57.2124C197.548 56.5568 196.871 55.8161 194.619 55.7571L191.428 55.685V66.3111C191.428 68.6973 191.428 70.7425 191.543 71.8569C191.639 72.5846 191.773 73.168 192.545 73.2532C192.968 73.3155 193.394 73.3505 193.821 73.3581C194.089 73.3581 194.223 73.4368 194.223 73.5679C194.223 73.699 194.013 73.8235 193.745 73.8235C192.066 73.8235 190.471 73.7514 189.782 73.7514C189.201 73.7514 187.606 73.8235 186.592 73.8235C186.266 73.8235 186.094 73.7514 186.094 73.5679C186.094 73.3843 186.19 73.3581 186.496 73.3581C186.801 73.3597 187.105 73.3245 187.402 73.2532C187.919 73.1549 188.072 72.5977 188.148 71.8307C188.263 70.7425 188.263 68.6973 188.263 66.3111V55.685" fill="white"/>
<path d="M207.876 61.7826C207.876 57.8494 207.876 57.1152 207.819 56.2893C207.761 55.4633 207.525 54.9782 206.97 54.834C206.673 54.7625 206.369 54.7294 206.064 54.7357C205.796 54.7357 205.662 54.6767 205.662 54.4734C205.662 54.2702 205.854 54.2637 206.256 54.2637C207.219 54.2637 208.808 54.3423 209.529 54.3423C210.167 54.3423 211.667 54.2637 212.605 54.2637C212.956 54.2637 213.147 54.3161 213.147 54.4734C213.147 54.6308 212.994 54.7357 212.739 54.7357C212.488 54.7354 212.238 54.7596 211.992 54.8078C211.297 54.9389 211.105 55.3781 211.048 56.2893C210.99 57.2005 211.009 57.8429 211.009 61.7826V66.3713C211.009 68.882 211.009 70.9601 211.105 72.0482C211.182 72.7431 211.354 73.2151 212.107 73.3134C212.53 73.3739 212.956 73.4089 213.383 73.4183C213.67 73.4183 213.785 73.497 213.785 73.6281C213.785 73.7592 213.594 73.8837 213.307 73.8837C211.654 73.8837 210.052 73.8116 209.382 73.8116C208.712 73.8116 207.206 73.8837 206.192 73.8837C205.866 73.8837 205.694 73.8116 205.694 73.6281C205.694 73.4445 205.79 73.4183 206.096 73.4183C206.401 73.419 206.705 73.3839 207.002 73.3134C207.519 73.2151 207.64 72.7759 207.736 72.0024C207.87 70.9142 207.87 68.8624 207.87 66.3517V61.7826" fill="white"/>
<path d="M222.935 73.5133C222.533 73.3297 222.456 73.2052 222.456 72.6349C222.456 71.2058 222.552 69.6522 222.571 69.2392C222.59 68.8262 222.686 68.5837 222.877 68.5837C223.069 68.5837 223.126 68.8131 223.126 69.0229C223.146 69.4689 223.226 69.91 223.362 70.3339C223.8 71.9831 225.314 73.0823 226.974 72.9561C229.245 72.9561 230.343 71.3762 230.343 69.9996C230.343 68.7344 229.979 67.5152 227.88 65.8567L226.706 64.9192C223.936 62.6904 222.973 60.8746 222.973 58.7769C222.973 55.9254 225.302 53.8801 228.805 53.8801C229.941 53.864 231.073 54.0118 232.168 54.3193C232.404 54.3717 232.519 54.4504 232.519 54.6274C232.519 54.9683 232.423 55.7221 232.423 57.7412C232.423 58.3115 232.34 58.5213 232.13 58.5213C231.919 58.5213 231.881 58.3639 231.881 58.0493C231.843 57.4275 231.62 56.8327 231.243 56.3449C230.591 55.4745 229.559 54.9971 228.492 55.0732C226.623 55.0732 225.487 56.1876 225.487 57.7412C225.487 58.9342 226.068 59.8454 228.161 61.4777L228.875 62.0152C231.881 64.4014 232.997 66.1516 232.997 68.6164C233.026 70.4405 232.129 72.1485 230.63 73.1265C229.417 73.8702 228.022 74.2389 226.61 74.1885C225.353 74.2454 224.099 74.0218 222.935 73.5329" fill="white"/>
<path d="M22.64 75.4384C8.40619 74.3851 4.07897 66.4732 8.87979 57.5708C11.4748 52.7747 15.3674 47.615 10.6963 42.8503C10.5666 42.6936 10.6963 42.5933 10.8715 42.6811C21.4852 46.7812 15.9448 55.063 14.1282 58.5112C10.5406 65.2695 12.8307 73.4823 22.64 75.2503C22.8541 75.2942 22.8411 75.4697 22.64 75.4509" fill="white"/>
<path d="M23.8454 68.0191L26.4361 39H20.3608L23.6289 68.0191C23.6289 68.2088 23.8314 68.2025 23.8454 68.0191Z" fill="white"/>
<path d="M30.9265 52.6034C34.1396 55.376 39.3742 70.8276 26.587 75.2405C26.3795 75.2991 26.3973 75.4748 26.587 75.4488C46.9268 72.6631 39.9374 56.6322 31.0925 52.4146C30.8553 52.2844 30.7427 52.4471 30.9205 52.6034" fill="white"/>
</svg>
