<svg width="240" height="114" viewBox="0 0 240 114" fill="none" xmlns="http://www.w3.org/2000/svg">
<path d="M117.968 26.603C117.317 26.9478 117.085 27.7519 117.428 28.3845C117.774 29.0328 118.596 29.2635 119.247 28.9245C119.897 28.5737 120.136 27.7776 119.788 27.1331C119.55 26.6956 119.085 26.4434 118.606 26.4434C118.39 26.4434 118.17 26.4945 117.968 26.603ZM121.57 26.6582C120.989 26.9616 120.782 27.6691 121.088 28.2406C121.395 28.8082 122.116 29.021 122.692 28.7096C123.282 28.4003 123.488 27.6948 123.181 27.1252C122.973 26.737 122.564 26.5104 122.14 26.5104C121.948 26.5104 121.752 26.5596 121.57 26.6582ZM114.549 27.6002C113.814 27.9924 113.535 28.8988 113.939 29.6181C114.339 30.3413 115.256 30.6232 116.002 30.229C116.739 29.8368 117.008 28.9304 116.612 28.211C116.339 27.7065 115.814 27.4188 115.27 27.4188C115.028 27.4188 114.779 27.478 114.549 27.6002ZM125.027 27.7656C124.518 28.0435 124.322 28.6722 124.595 29.1649C124.868 29.6614 125.514 29.8448 126.005 29.5728C126.523 29.3029 126.709 28.682 126.43 28.1875C126.246 27.8405 125.882 27.6454 125.508 27.6454C125.345 27.6454 125.179 27.6848 125.027 27.7656ZM111.838 29.8546C111.177 30.2093 110.934 30.9956 111.29 31.6479C111.646 32.2825 112.446 32.521 113.098 32.176C113.761 31.8312 114.002 31.0271 113.65 30.3946C113.41 29.9511 112.943 29.6949 112.466 29.6949C112.252 29.6949 112.036 29.7462 111.838 29.8546ZM128.002 29.8703C127.559 30.1088 127.4 30.6389 127.63 31.0626C127.864 31.4864 128.404 31.642 128.85 31.4233C129.281 31.1828 129.45 30.6527 129.214 30.225C129.048 29.9314 128.739 29.762 128.424 29.762C128.28 29.762 128.137 29.7974 128.002 29.8703ZM130.2 32.7475C129.852 32.9466 129.709 33.4019 129.909 33.7487C130.103 34.1053 130.558 34.2334 130.909 34.0443C131.275 33.853 131.41 33.4156 131.212 33.0589C131.075 32.8067 130.816 32.6667 130.546 32.6667C130.43 32.6667 130.311 32.6924 130.2 32.7475ZM109.902 32.8401C109.324 33.1495 109.11 33.863 109.413 34.4285C109.732 34.9921 110.454 35.2109 111.029 34.8995C111.609 34.598 111.831 33.8847 111.518 33.3131C111.298 32.9249 110.886 32.7022 110.464 32.7022C110.274 32.7022 110.082 32.7475 109.902 32.8401ZM131.319 35.8967C130.877 36.1233 130.711 36.6652 130.952 37.091C131.178 37.5166 131.732 37.6743 132.15 37.4555C132.59 37.2053 132.758 36.6711 132.528 36.2495C132.364 35.9558 132.055 35.7902 131.74 35.7902C131.596 35.7902 131.451 35.8257 131.319 35.8967ZM108.956 36.2987C108.455 36.5628 108.269 37.1855 108.538 37.6781C108.817 38.1807 109.445 38.3639 109.954 38.0959C110.458 37.826 110.649 37.1953 110.377 36.7066C110.189 36.3638 109.833 36.1687 109.463 36.1687C109.292 36.1687 109.118 36.2121 108.956 36.2987ZM131.323 39.235C130.814 39.511 130.634 40.1257 130.897 40.6322C131.166 41.1209 131.816 41.3003 132.317 41.0381C132.825 40.7682 133.006 40.1454 132.732 39.6507C132.546 39.3059 132.192 39.1128 131.82 39.1128C131.653 39.1128 131.485 39.1542 131.323 39.235ZM109.106 39.8853C108.678 40.1198 108.516 40.6579 108.75 41.0815C108.989 41.5131 109.532 41.6628 109.958 41.4263C110.393 41.2097 110.569 40.6637 110.322 40.24C110.154 39.9503 109.849 39.7809 109.53 39.7809C109.389 39.7809 109.243 39.8144 109.106 39.8853ZM130.242 42.4255C129.659 42.7271 129.448 43.4523 129.755 44.0199C130.073 44.5835 130.794 44.7963 131.362 44.4927C131.956 44.1774 132.16 43.474 131.859 42.9005C131.641 42.5103 131.23 42.2855 130.806 42.2855C130.616 42.2855 130.422 42.3289 130.242 42.4255ZM110.355 43.2867C109.991 43.474 109.859 43.9193 110.055 44.2858C110.249 44.6346 110.698 44.7706 111.068 44.5835C111.427 44.3824 111.563 43.939 111.365 43.5843C111.229 43.3399 110.969 43.2001 110.702 43.2001C110.585 43.2001 110.466 43.2276 110.355 43.2867ZM128.167 45.1548C127.513 45.5038 127.274 46.3039 127.626 46.9403C127.969 47.5808 128.786 47.8193 129.442 47.4665C130.093 47.1354 130.333 46.3216 129.98 45.687C129.733 45.2496 129.273 44.9934 128.798 44.9934C128.586 44.9934 128.369 45.0445 128.167 45.1548ZM112.428 45.9137C111.991 46.1383 111.829 46.6782 112.064 47.102C112.292 47.5296 112.836 47.6873 113.27 47.4508C113.703 47.23 113.866 46.6959 113.634 46.2683C113.476 45.9766 113.167 45.8131 112.848 45.8131C112.704 45.8131 112.561 45.8446 112.428 45.9137ZM125.268 47.1078C124.53 47.4942 124.248 48.3986 124.658 49.1258C125.058 49.8491 125.979 50.115 126.721 49.7328C127.454 49.3347 127.727 48.4243 127.333 47.7167C127.058 47.2123 126.535 46.9226 125.993 46.9226C125.749 46.9226 125.5 46.9817 125.268 47.1078ZM115.264 47.7562C114.747 48.0301 114.563 48.643 114.842 49.1396C115.105 49.6402 115.741 49.8313 116.246 49.5634C116.756 49.2815 116.945 48.6568 116.673 48.1641C116.481 47.8272 116.119 47.6321 115.753 47.6321C115.588 47.6321 115.418 47.6695 115.264 47.7562ZM122.023 48.4105C121.368 48.7514 121.14 49.5475 121.498 50.1959C121.837 50.8305 122.647 51.0827 123.302 50.722C123.959 50.385 124.193 49.5831 123.845 48.9445C123.599 48.5031 123.138 48.2528 122.661 48.2528C122.445 48.2528 122.227 48.304 122.023 48.4105ZM118.564 48.6154C117.984 48.9228 117.778 49.6382 118.085 50.2018C118.402 50.7734 119.124 50.9862 119.703 50.6806C120.289 50.3812 120.501 49.6637 120.188 49.0884C119.976 48.6982 119.562 48.4814 119.134 48.4814C118.94 48.4814 118.746 48.5228 118.564 48.6154Z" fill="white"/>
<path d="M118.521 21.5314C118.246 22.415 118.773 23.3356 119.696 23.6007C120.62 23.8618 121.584 23.3493 121.857 22.4758C122.134 21.5924 121.605 20.6599 120.686 20.4047C120.518 20.3555 120.351 20.334 120.186 20.334C119.43 20.334 118.746 20.8071 118.521 21.5314ZM123.183 22.0694C122.875 23.0902 123.462 24.1464 124.538 24.4487C125.598 24.7491 126.707 24.1719 127.015 23.163C127.337 22.1381 126.73 21.0702 125.664 20.7699C125.476 20.7188 125.288 20.6933 125.102 20.6933C124.235 20.6933 123.435 21.237 123.183 22.0694ZM113.84 22.4582C113.6 23.2453 114.073 24.066 114.894 24.2976C115.712 24.5292 116.577 24.0856 116.815 23.2945C117.048 22.513 116.577 21.6885 115.765 21.4569C115.621 21.4176 115.476 21.3981 115.334 21.3981C114.66 21.3981 114.042 21.8181 113.84 22.4582ZM127.903 24.1739C127.629 25.0554 128.162 25.98 129.083 26.2411C130.006 26.5022 130.973 25.9879 131.244 25.1084C131.518 24.2269 130.992 23.3003 130.068 23.0392C129.905 22.9921 129.742 22.9705 129.579 22.9705C128.823 22.9705 128.131 23.4496 127.903 24.1739ZM109.816 24.8218C109.626 25.4441 109.99 26.086 110.64 26.2706C111.285 26.4512 111.962 26.0938 112.154 25.4794C112.342 24.863 111.971 24.2151 111.324 24.0306C111.21 23.9973 111.095 23.9815 110.981 23.9815C110.452 23.9815 109.969 24.3134 109.816 24.8218ZM131.684 27.474C131.438 28.2691 131.913 29.0838 132.729 29.3154C133.553 29.5452 134.406 29.0896 134.652 28.3063C134.898 27.529 134.429 26.7045 133.603 26.4767C133.458 26.4354 133.311 26.4159 133.167 26.4159C132.504 26.4159 131.888 26.834 131.684 27.474ZM106.633 28.3241C106.476 28.8187 106.782 29.3469 107.302 29.4902C107.825 29.6373 108.366 29.3527 108.525 28.854C108.686 28.3593 108.378 27.8332 107.86 27.6801C107.771 27.6566 107.68 27.6448 107.589 27.6448C107.158 27.6448 106.761 27.9079 106.633 28.3241ZM134.371 31.7203C134.171 32.3505 134.555 32.9944 135.195 33.175C135.846 33.3576 136.519 33.0042 136.709 32.3838C136.9 31.7635 136.532 31.1176 135.887 30.939C135.772 30.9057 135.654 30.8899 135.538 30.8899C135.009 30.8899 134.522 31.2196 134.371 31.7203ZM104.759 32.6724C104.646 33.0494 104.86 33.4459 105.253 33.5539C105.647 33.6639 106.054 33.4459 106.17 33.073C106.284 32.6999 106.063 32.3092 105.668 32.1954C105.598 32.1777 105.53 32.1679 105.462 32.1679C105.143 32.1679 104.852 32.3662 104.759 32.6724ZM135.511 36.4437C135.354 36.9404 135.652 37.4723 136.181 37.6156C136.705 37.7649 137.251 37.4763 137.406 36.9737C137.556 36.481 137.263 35.953 136.736 35.8017C136.645 35.7782 136.552 35.7644 136.464 35.7644C136.032 35.7644 135.631 36.0315 135.511 36.4437ZM103.875 37.3035C103.718 37.8002 104.026 38.3224 104.546 38.4716C105.067 38.6207 105.614 38.3401 105.769 37.8356C105.926 37.337 105.629 36.8128 105.104 36.6615C105.013 36.634 104.922 36.6243 104.831 36.6243C104.404 36.6243 104.009 36.8951 103.875 37.3035ZM135.111 41.2121C135.003 41.5832 135.22 41.9817 135.606 42.0857C136.003 42.1957 136.408 41.9837 136.519 41.6068C136.639 41.2357 136.416 40.8392 136.024 40.7292C135.958 40.7116 135.889 40.7037 135.823 40.7037C135.507 40.7037 135.206 40.904 135.111 41.2121ZM104.58 41.9013C104.398 42.5176 104.747 43.1695 105.404 43.3501C106.042 43.5366 106.724 43.1753 106.914 42.5531C107.102 41.9366 106.73 41.2887 106.089 41.118C105.97 41.0826 105.85 41.0669 105.73 41.0669C105.205 41.0669 104.726 41.3947 104.58 41.9013ZM132.758 45.4231C132.605 45.9258 132.904 46.4519 133.419 46.5932C133.95 46.7424 134.499 46.4538 134.652 45.9571C134.803 45.4624 134.505 44.9304 133.983 44.7812C133.892 44.7556 133.799 44.7439 133.706 44.7439C133.278 44.7439 132.884 45.0109 132.758 45.4231ZM106.629 45.9708C106.385 46.7541 106.85 47.5748 107.674 47.8104C108.502 48.044 109.353 47.5924 109.601 46.8071C109.843 46.0238 109.366 45.1955 108.546 44.9619C108.401 44.9206 108.254 44.9009 108.11 44.9009C107.443 44.9009 106.831 45.3231 106.629 45.9708ZM129.128 48.8018C128.942 49.4163 129.318 50.066 129.959 50.2506C130.601 50.4331 131.277 50.0758 131.465 49.4653C131.661 48.841 131.291 48.1931 130.647 48.0125C130.529 47.9792 130.413 47.9635 130.3 47.9635C129.771 47.9635 129.285 48.2972 129.128 48.8018ZM110.041 49.1787C109.773 50.0523 110.291 50.9789 111.219 51.2419C112.144 51.4972 113.107 50.9906 113.384 50.1112C113.648 49.2357 113.123 48.3011 112.196 48.044C112.031 47.9968 111.865 47.9753 111.704 47.9753C110.95 47.9753 110.262 48.4464 110.041 49.1787ZM114.264 51.1261C113.958 52.1529 114.553 53.2071 115.621 53.5094C116.68 53.8019 117.8 53.2189 118.102 52.2118C118.414 51.1949 117.812 50.1288 116.744 49.8284C116.556 49.7754 116.366 49.7519 116.18 49.7519C115.313 49.7519 114.515 50.2898 114.264 51.1261ZM124.466 50.9848C124.226 51.7721 124.704 52.5966 125.517 52.8242C126.344 53.056 127.199 52.6084 127.441 51.8191C127.682 51.0418 127.218 50.2153 126.393 49.9855C126.247 49.9424 126.098 49.9227 125.951 49.9227C125.282 49.9227 124.662 50.3428 124.466 50.9848ZM119.419 51.8151C119.151 52.6907 119.682 53.6095 120.603 53.8746C121.529 54.1396 122.497 53.6312 122.76 52.7537C123.028 51.8682 122.51 50.9416 121.586 50.6825C121.419 50.6372 121.254 50.6137 121.091 50.6137C120.337 50.6137 119.645 51.0849 119.419 51.8151Z" fill="white"/>
<path d="M121.791 16.3511C121.086 17.1209 121.119 18.3371 121.875 19.0653C122.626 19.7934 123.811 19.7576 124.513 18.9858C125.222 18.2102 125.183 16.9999 124.434 16.2698C124.074 15.9226 123.614 15.75 123.157 15.75C122.659 15.75 122.161 15.9524 121.791 16.3511ZM115.871 16.8214C115.314 17.4324 115.341 18.3868 115.937 18.9621C116.523 19.5315 117.457 19.4998 118.017 18.8946C118.568 18.2895 118.543 17.3273 117.953 16.7579C117.667 16.4821 117.305 16.3492 116.943 16.3492C116.552 16.3492 116.161 16.5079 115.871 16.8214ZM127.592 17.9702C126.796 18.8372 126.831 20.2001 127.676 21.0234C128.52 21.8429 129.861 21.7992 130.651 20.9362C131.445 20.0672 131.41 18.6963 130.566 17.8828C130.155 17.486 129.635 17.2895 129.12 17.2895C128.561 17.2895 128.007 17.5198 127.592 17.9702ZM110.221 19.1684C109.772 19.6605 109.793 20.4282 110.27 20.8984C110.754 21.3587 111.506 21.3369 111.957 20.8449C112.409 20.3548 112.383 19.581 111.908 19.1189C111.675 18.8946 111.381 18.7835 111.087 18.7835C110.772 18.7835 110.457 18.9145 110.221 19.1684ZM132.5 21.3508C131.58 22.3448 131.617 23.9121 132.596 24.8566C133.567 25.8029 135.1 25.7512 136.011 24.7632C136.932 23.7514 136.887 22.1821 135.916 21.2397C135.449 20.7874 134.853 20.567 134.261 20.567C133.615 20.567 132.975 20.8291 132.5 21.3508ZM105.529 23.2892C105.188 23.6582 105.206 24.2316 105.564 24.5788C105.926 24.9299 106.487 24.908 106.817 24.5431C107.156 24.1759 107.14 23.5986 106.784 23.2515C106.609 23.0868 106.389 23.0055 106.169 23.0055C105.936 23.0055 105.702 23.1007 105.529 23.2892ZM136.531 26.6202C135.733 27.4852 135.77 28.8543 136.62 29.6736C137.467 30.4949 138.798 30.4435 139.59 29.5804C140.39 28.7114 140.353 27.3523 139.499 26.525C139.098 26.1342 138.584 25.9397 138.066 25.9397C137.506 25.9397 136.945 26.168 136.531 26.6202ZM101.804 28.3443C101.349 28.8364 101.374 29.6062 101.859 30.0743C102.332 30.5347 103.085 30.5148 103.54 30.0288C103.986 29.5347 103.968 28.7631 103.488 28.2988C103.258 28.0745 102.964 27.9634 102.672 27.9634C102.355 27.9634 102.04 28.0924 101.804 28.3443ZM138.794 32.7925C138.082 33.5642 138.119 34.7805 138.874 35.5046C139.623 36.2387 140.81 36.193 141.515 35.4232C142.229 34.6555 142.19 33.4392 141.437 32.7091C141.075 32.362 140.612 32.1894 140.152 32.1894C139.656 32.1894 139.16 32.3897 138.794 32.7925ZM99.862 34.2804C99.3151 34.8935 99.3288 35.8398 99.9262 36.4132C100.512 36.9886 101.45 36.9569 102.007 36.3558C102.565 35.7506 102.532 34.7844 101.946 34.215C101.66 33.9393 101.296 33.8022 100.932 33.8022C100.541 33.8022 100.15 33.963 99.862 34.2804ZM139.263 39.4527C138.708 40.0598 138.741 41.0161 139.329 41.5855C139.929 42.1628 140.851 42.1312 141.411 41.5221C141.966 40.9169 141.947 39.9627 141.345 39.3873C141.063 39.1135 140.701 38.9786 140.337 38.9786C139.946 38.9786 139.553 39.1372 139.263 39.4527ZM99.7549 40.3753C99.0504 41.143 99.0854 42.3652 99.8366 43.0914C100.592 43.8215 101.771 43.7838 102.48 43.0119C103.188 42.2442 103.153 41.026 102.4 40.2919C102.04 39.9408 101.582 39.7702 101.123 39.7702C100.625 39.7702 100.125 39.9746 99.7549 40.3753ZM137.733 45.7776C137.282 46.2678 137.303 47.0454 137.782 47.5136C138.268 47.976 139.022 47.9501 139.473 47.4542C139.921 46.9641 139.903 46.1883 139.423 45.7222C139.191 45.4999 138.897 45.3908 138.603 45.3908C138.288 45.3908 137.969 45.5217 137.733 45.7776ZM101.686 46.226C100.89 47.0871 100.915 48.4561 101.765 49.2794C102.616 50.0928 103.951 50.0493 104.741 49.1862C105.535 48.3212 105.498 46.9462 104.655 46.1348C104.249 45.7381 103.733 45.5456 103.221 45.5456C102.66 45.5456 102.1 45.7776 101.686 46.226ZM105.257 51.0452C104.344 52.0551 104.387 53.6105 105.362 54.5608C106.333 55.5013 107.864 55.4576 108.777 54.4557C109.696 53.4557 109.649 51.8884 108.676 50.942C108.207 50.4896 107.61 50.2655 107.016 50.2635C106.374 50.2635 105.731 50.5273 105.257 51.0452ZM134.45 51.2634C134.116 51.6325 134.133 52.2098 134.489 52.555C134.849 52.8963 135.408 52.8844 135.742 52.5093C136.081 52.1463 136.067 51.567 135.704 51.2257C135.536 51.0591 135.316 50.9757 135.098 50.9757C134.859 50.9757 134.623 51.0729 134.45 51.2634ZM110.62 54.8763C109.828 55.7314 109.865 57.1004 110.715 57.9217C111.56 58.745 112.893 58.6993 113.683 57.8343C114.477 56.9594 114.448 55.5984 113.594 54.7791C113.191 54.3881 112.671 54.1938 112.156 54.1938C112.152 54.1938 112.148 54.1938 112.148 54.1938C111.589 54.1938 111.033 54.4239 110.62 54.8763ZM129.316 54.9575C128.863 55.4496 128.884 56.2254 129.363 56.6876C129.848 57.1519 130.603 57.128 131.05 56.6361C131.502 56.148 131.48 55.3743 131 54.908C130.77 54.6838 130.476 54.5727 130.18 54.5727C129.865 54.5727 129.55 54.7016 129.316 54.9575ZM116.754 56.8165C116.046 57.5844 116.081 58.8086 116.834 59.5268C117.595 60.2609 118.77 60.2251 119.477 59.4513C120.187 58.6836 120.158 57.4634 119.403 56.7392C119.041 56.386 118.582 56.2155 118.12 56.2155C117.62 56.2155 117.122 56.4178 116.754 56.8165ZM123.256 56.9119C122.702 57.5111 122.731 58.4752 123.32 59.0466C123.914 59.62 124.846 59.5842 125.403 58.9771C125.959 58.3781 125.938 57.4177 125.342 56.8443C125.056 56.5686 124.694 56.4337 124.332 56.4337C123.939 56.4337 123.548 56.5944 123.256 56.9119Z" fill="white"/>
<path d="M124.243 9.67318C123.329 9.85586 122.737 10.7429 122.92 11.6705C123.102 12.5879 123.992 13.1847 124.904 13C125.816 12.8153 126.406 11.9222 126.223 11.0047C126.061 10.1908 125.362 9.63867 124.578 9.63867C124.468 9.63867 124.357 9.65085 124.243 9.67318ZM117.263 10.1339C116.548 10.2415 116.047 10.9113 116.153 11.64C116.26 12.3667 116.929 12.864 117.646 12.7605C118.366 12.6529 118.866 11.9831 118.759 11.2544C118.666 10.5927 118.102 10.1197 117.458 10.1197C117.393 10.1197 117.33 10.1258 117.263 10.1339ZM130.97 11.1062C129.879 11.3863 129.217 12.5027 129.498 13.6089C129.776 14.7091 130.891 15.3789 131.981 15.0927C133.069 14.8126 133.73 13.6901 133.45 12.592C133.213 11.6563 132.384 11.0413 131.476 11.0413C131.308 11.0413 131.14 11.0616 130.97 11.1062ZM110.123 12.2713C109.503 12.5413 109.213 13.2659 109.483 13.8972C109.748 14.5223 110.474 14.8085 111.094 14.5406C111.714 14.2686 112.004 13.542 111.737 12.9168C111.536 12.4479 111.084 12.1698 110.612 12.1698C110.448 12.1698 110.281 12.2023 110.123 12.2713ZM136.93 14.1509C135.595 14.5711 134.839 16.0081 135.26 17.364C135.678 18.7159 137.108 19.4709 138.444 19.0488C139.788 18.6245 140.534 17.1854 140.116 15.8356C139.774 14.7355 138.772 14.0332 137.694 14.0332C137.439 14.0332 137.183 14.0717 136.93 14.1509ZM103.679 16.0447C103.111 16.5014 103.012 17.3296 103.462 17.908C103.914 18.4844 104.743 18.5799 105.31 18.1273C105.881 17.6706 105.981 16.8383 105.529 16.2598C105.269 15.929 104.886 15.7565 104.499 15.7565C104.214 15.7565 103.924 15.8519 103.679 16.0447ZM141.829 18.9452C140.375 19.4873 139.628 21.107 140.171 22.5786C140.708 24.0481 142.323 24.795 143.77 24.2531C145.223 23.7132 145.969 22.0813 145.43 20.6158C145.008 19.4669 143.938 18.7686 142.803 18.7686C142.479 18.7686 142.149 18.8254 141.829 18.9452ZM98.5591 20.8471C97.7992 21.3892 97.6148 22.4446 98.1579 23.2159C98.6969 23.9792 99.7468 24.1598 100.503 23.6179C101.263 23.0739 101.443 22.0143 100.904 21.2511C100.576 20.7822 100.059 20.5326 99.534 20.5326C99.1956 20.5326 98.8551 20.634 98.5591 20.8471ZM145.235 24.9432C143.685 25.6193 142.97 27.4176 143.639 28.9866C144.307 30.5495 146.101 31.2702 147.649 30.5983C149.196 29.9244 149.913 28.1097 149.242 26.5509C148.746 25.3837 147.623 24.6916 146.445 24.6916C146.04 24.6916 145.629 24.7707 145.235 24.9432ZM94.9741 26.764C94.0255 27.375 93.7356 28.6375 94.3437 29.6037C94.9456 30.5637 96.2062 30.85 97.1568 30.2431C98.1133 29.6382 98.3931 28.3615 97.789 27.3993C97.3999 26.7802 96.7432 26.4433 96.0684 26.4433C95.6935 26.4433 95.3144 26.5489 94.9741 26.764ZM147.145 32.143C145.76 32.8351 145.191 34.5341 145.876 35.9285C146.569 37.3412 148.247 37.9034 149.635 37.2114C151.022 36.5213 151.593 34.8283 150.902 33.4237C150.414 32.4271 149.419 31.8507 148.385 31.8507C147.967 31.8507 147.544 31.9441 147.145 32.143ZM93.077 33.2329C91.851 33.9251 91.4151 35.486 92.1063 36.7241C92.7933 37.9563 94.3417 38.4007 95.5677 37.7045C96.7939 37.0124 97.2297 35.4454 96.5406 34.2093C96.0725 33.371 95.2132 32.9021 94.3234 32.9021C94.3194 32.9021 94.3174 32.9021 94.3133 32.9021C93.8938 32.9021 93.4681 33.0097 93.077 33.2329ZM147.24 39.6228C146.02 40.3129 145.58 41.8799 146.267 43.12C146.958 44.3582 148.511 44.7865 149.729 44.0944C150.955 43.4002 151.392 41.8432 150.701 40.6031C150.235 39.7649 149.372 39.2919 148.484 39.2919C148.063 39.2919 147.635 39.3974 147.24 39.6228ZM93.1723 40.1159C91.7921 40.804 91.2145 42.497 91.9035 43.9056C92.5927 45.3061 94.2789 45.8785 95.667 45.1843C97.0534 44.4922 97.6208 42.7932 96.9317 41.3927C96.4413 40.392 95.4544 39.8156 94.4268 39.8156C94.0053 39.8156 93.5777 39.9129 93.1723 40.1159ZM95.1604 46.731C93.6162 47.4009 92.8946 49.2074 93.5654 50.7764C94.2302 52.3373 96.0339 53.0558 97.5783 52.3841C99.1206 51.7102 99.8339 49.8996 99.1652 48.3366C98.6665 47.1715 97.5459 46.4794 96.3683 46.4794C95.965 46.4794 95.5557 46.5585 95.1604 46.731ZM145.655 47.0823C144.702 47.6891 144.417 48.9639 145.023 49.9198C145.627 50.8861 146.885 51.1661 147.836 50.5593C148.786 49.9523 149.076 48.6858 148.47 47.7195C148.081 47.1024 147.416 46.7636 146.739 46.7636C146.368 46.7636 145.993 46.867 145.655 47.0823ZM99.0375 53.0742C97.5864 53.6161 96.8405 55.248 97.3797 56.7075C97.9208 58.1871 99.536 58.922 100.981 58.378C102.438 57.8339 103.182 56.2203 102.641 54.7426C102.221 53.6038 101.151 52.8956 100.01 52.8956C99.688 52.8956 99.3577 52.9524 99.0375 53.0742ZM142.307 53.7094C141.545 54.2515 141.369 55.311 141.906 56.0762C142.445 56.8454 143.495 57.024 144.257 56.4841C145.013 55.9422 145.193 54.8847 144.652 54.1114C144.326 53.6445 143.805 53.3968 143.278 53.3948C142.941 53.3948 142.601 53.4984 142.307 53.7094ZM104.364 58.2785C103.022 58.6986 102.276 60.1358 102.696 61.4897C103.115 62.8516 104.536 63.5986 105.877 63.1724C107.217 62.7542 107.969 61.3192 107.549 59.9653C107.211 58.8652 106.204 58.1609 105.12 58.1609C104.87 58.1609 104.615 58.1994 104.364 58.2785ZM137.496 59.2C136.93 59.6567 136.833 60.491 137.281 61.0635C137.733 61.6439 138.562 61.7352 139.131 61.2806C139.701 60.8259 139.798 59.9957 139.35 59.4173C139.091 59.0864 138.705 58.9139 138.316 58.9139C138.031 58.9139 137.741 59.0072 137.496 59.2ZM110.833 62.2346C109.742 62.5167 109.086 63.6332 109.363 64.7333C109.641 65.8435 110.752 66.5012 111.842 66.221C112.934 65.9389 113.595 64.8245 113.315 63.7184C113.082 62.7888 112.249 62.1696 111.341 62.1696C111.173 62.1696 111.003 62.192 110.833 62.2346ZM131.718 62.7888C131.097 63.0566 130.81 63.7833 131.077 64.4085C131.349 65.0418 132.068 65.3259 132.688 65.058C133.311 64.788 133.6 64.0594 133.333 63.4321C133.132 62.9652 132.678 62.6872 132.204 62.6872C132.042 62.6872 131.876 62.7197 131.718 62.7888ZM117.906 64.3252C116.996 64.51 116.404 65.4092 116.586 66.3246C116.769 67.2502 117.658 67.8449 118.568 67.6602C119.479 67.4755 120.074 66.5804 119.89 65.6547C119.728 64.8509 119.024 64.2929 118.236 64.2929C118.127 64.2929 118.017 64.3029 117.906 64.3252ZM125.161 64.5648C124.448 64.6743 123.947 65.3482 124.053 66.0729C124.158 66.8016 124.831 67.2989 125.544 67.1933C126.266 67.0858 126.766 66.416 126.659 65.6872C126.566 65.0256 126 64.5526 125.35 64.5526C125.289 64.5526 125.226 64.5546 125.161 64.5648Z" fill="white"/>
<path d="M119.098 3.54028C119.098 4.39555 119.792 5.08452 120.641 5.08452C121.494 5.08452 122.188 4.39555 122.188 3.54028C122.188 2.68303 121.494 2 120.641 2C119.792 2 119.098 2.68303 119.098 3.54028ZM111.323 3.11264C110.438 3.34824 109.912 4.253 110.147 5.13994C110.386 6.02887 111.299 6.54957 112.179 6.31397C113.066 6.07639 113.592 5.16964 113.357 4.28071C113.157 3.53829 112.49 3.05325 111.76 3.05325C111.616 3.05325 111.469 3.07305 111.323 3.11264ZM127.931 4.2827C127.694 5.16964 128.22 6.07639 129.103 6.31397C129.988 6.55154 130.901 6.02887 131.138 5.14193C131.374 4.25498 130.845 3.35022 129.958 3.11264C129.815 3.07305 129.669 3.05523 129.528 3.05523C128.798 3.05523 128.128 3.53829 127.931 4.2827ZM103.025 6.06452C101.876 6.30803 101.143 7.42661 101.388 8.58083C101.631 9.72514 102.757 10.4557 103.904 10.2122C105.052 9.96866 105.784 8.84215 105.538 7.69388C105.327 6.69408 104.45 6.01502 103.471 6.01502C103.324 6.01502 103.174 6.03086 103.025 6.06452ZM135.745 7.69388C135.5 8.84215 136.232 9.96866 137.38 10.2122C138.524 10.4557 139.652 9.72514 139.893 8.58083C140.143 7.42661 139.407 6.30803 138.261 6.06649C138.111 6.03283 137.96 6.017 137.81 6.017C136.832 6.017 135.956 6.69408 135.745 7.69388ZM95.9518 11.0655C94.5506 11.2872 93.5937 12.5939 93.8169 14.0055C94.0381 15.4071 95.3539 16.3674 96.7553 16.1456C98.1586 15.9239 99.1156 14.6033 98.8942 13.1997C98.6928 11.9287 97.6025 11.0338 96.3605 11.0338C96.225 11.0338 96.0895 11.0437 95.9518 11.0655ZM142.391 13.2017C142.172 14.6053 143.127 15.9259 144.528 16.1476C145.928 16.3693 147.249 15.4091 147.469 14.0074C147.694 12.5958 146.731 11.2892 145.336 11.0675C145.2 11.0457 145.062 11.0358 144.929 11.0358C143.687 11.0358 142.595 11.9287 142.391 13.2017ZM147.197 20.3884C147.014 22.1464 148.298 23.7242 150.05 23.9103C151.812 24.0964 153.387 22.8135 153.572 21.0555C153.76 19.2876 152.482 17.7195 150.724 17.5334C150.608 17.5215 150.497 17.5157 150.383 17.5157C148.768 17.5157 147.373 18.7352 147.197 20.3884ZM90.5596 17.5334C88.7954 17.7195 87.5236 19.2876 87.709 21.0555C87.8924 22.8135 89.4652 24.0964 91.2295 23.9083C92.9877 23.7242 94.2675 22.1464 94.082 20.3884C93.9086 18.7352 92.5172 17.5157 90.9025 17.5157C90.7889 17.5157 90.6752 17.5215 90.5596 17.5334ZM150.301 28.8203C150.2 30.7703 151.697 32.4353 153.638 32.5382C155.59 32.6372 157.257 31.1405 157.358 29.1904C157.46 27.2305 155.957 25.5793 154.013 25.4784C153.949 25.4744 153.885 25.4725 153.822 25.4725C151.96 25.4725 150.401 26.9255 150.301 28.8203ZM87.2644 25.4784C85.3248 25.5793 83.8198 27.2305 83.9235 29.1904C84.0251 31.1405 85.6936 32.6372 87.6412 32.5382C89.5888 32.4353 91.0859 30.7703 90.9843 28.8203C90.8845 26.9255 89.3277 25.4725 87.4559 25.4725C87.392 25.4725 87.3283 25.4744 87.2644 25.4784ZM151.146 37.8996C151.146 40.0258 152.865 41.7502 154.986 41.7502C157.113 41.7502 158.835 40.0258 158.835 37.9034C158.835 35.7673 157.113 34.0588 154.992 34.0588C152.865 34.0588 151.146 35.7673 151.146 37.8996ZM82.4463 37.9034C82.4463 40.0258 84.1766 41.7502 86.2957 41.7502C88.4107 41.7502 90.133 40.0258 90.133 37.8996C90.133 35.7673 88.4107 34.0588 86.2957 34.0588C84.1766 34.0588 82.4463 35.7673 82.4463 37.9034ZM153.638 43.2688C151.697 43.3716 150.2 45.0348 150.301 46.9828C150.405 48.9448 152.067 50.4256 154.013 50.3266C155.957 50.2238 157.457 48.5746 157.356 46.6126C157.259 44.7298 155.693 43.2648 153.826 43.2648C153.764 43.2648 153.702 43.2668 153.638 43.2688ZM83.9255 46.6126C83.8237 48.5746 85.3248 50.2238 87.2664 50.3266C89.22 50.4276 90.8805 48.9448 90.9863 46.9828C91.0859 45.0348 89.5888 43.3716 87.6432 43.2688C87.5795 43.2668 87.5176 43.2648 87.4559 43.2648C85.59 43.2648 84.0231 44.7298 83.9255 46.6126ZM150.05 51.8967C148.296 52.0808 147.014 53.6587 147.197 55.4207C147.385 57.1886 148.968 58.4557 150.722 58.2716C152.482 58.0856 153.76 56.5194 153.572 54.7495C153.399 53.1044 152.008 51.8788 150.389 51.8788C150.279 51.8788 150.166 51.8848 150.05 51.8967ZM87.709 54.7495C87.5236 56.5194 88.7974 58.0856 90.5596 58.2716C92.3179 58.4557 93.8967 57.1886 94.082 55.4207C94.2675 53.6587 92.9877 52.0808 91.2295 51.8967C91.1138 51.8848 91.0002 51.8788 90.8865 51.8788C89.2678 51.8788 87.8804 53.1044 87.709 54.7495ZM144.53 59.6614C143.127 59.8851 142.168 61.2017 142.391 62.6035C142.614 64.013 143.932 64.9613 145.334 64.7396C146.731 64.5179 147.692 63.2092 147.469 61.7996C147.267 60.5326 146.171 59.6298 144.931 59.6298C144.799 59.6298 144.664 59.6416 144.53 59.6614ZM93.8189 61.7996C93.5937 63.2092 94.5526 64.5199 95.9518 64.7396C97.3533 64.9613 98.671 64.013 98.8962 62.6035C99.1156 61.2037 98.1586 59.8851 96.7553 59.6634C96.6176 59.6436 96.4841 59.6317 96.3506 59.6317C95.1107 59.6317 94.0163 60.5346 93.8189 61.7996ZM137.38 65.5928C136.232 65.8364 135.498 66.9669 135.743 68.1092C135.988 69.2635 137.113 69.9919 138.261 69.7465C139.407 69.505 140.141 68.3804 139.893 67.2262C139.682 66.2324 138.799 65.5453 137.818 65.5453C137.673 65.5453 137.525 65.5592 137.38 65.5928ZM101.39 67.2282C101.143 68.3804 101.876 69.505 103.023 69.7485C104.169 69.9919 105.295 69.2635 105.538 68.1092C105.784 66.9669 105.052 65.8364 103.904 65.5928C103.758 65.5592 103.611 65.5453 103.465 65.5453C102.484 65.5453 101.601 66.2324 101.39 67.2282ZM129.101 69.4931C128.22 69.7307 127.694 70.6374 127.927 71.5264C128.166 72.4113 129.077 72.9319 129.958 72.6944C130.847 72.4588 131.371 71.554 131.136 70.665C130.939 69.9247 130.265 69.4356 129.531 69.4356C129.39 69.4356 129.244 69.4535 129.101 69.4931ZM110.147 70.669C109.912 71.554 110.44 72.4588 111.323 72.6944C112.21 72.9319 113.119 72.4113 113.357 71.5244C113.592 70.6374 113.066 69.7307 112.179 69.4931C112.037 69.4555 111.893 69.4356 111.752 69.4356C111.022 69.4356 110.347 69.9247 110.147 70.669ZM119.098 72.2667C119.098 73.0864 119.736 73.7516 120.537 73.8051H120.746C121.55 73.7516 122.188 73.0864 122.188 72.2648C122.188 71.4135 121.494 70.7225 120.641 70.7225C119.792 70.7225 119.098 71.4135 119.098 72.2667Z" fill="white"/>
<path d="M197.097 107.681C197.097 109.444 197.167 109.491 198.892 109.491H204.658C204.902 109.491 205.111 109.68 205.111 109.911V111.253C205.111 111.55 204.995 111.656 204.658 111.696C203.926 111.802 202.445 111.99 199.738 111.99C195.952 111.99 193.952 112.014 193.952 107.681V101.029C193.952 96.6975 195.952 96.7227 199.738 96.7227C202.445 96.7227 203.926 96.9123 204.658 97.0149C204.995 97.0551 205.111 97.1623 205.111 97.4583V98.8009C205.111 99.0305 204.902 99.2229 204.658 99.2229H198.892C197.167 99.2229 197.097 99.2705 197.097 101.029V102.957H204.381C204.635 102.957 204.833 103.149 204.833 103.377V104.895C204.833 105.123 204.635 105.313 204.381 105.313H197.097V107.681ZM230.763 112C228.749 112 226.711 111.68 225.617 111.448C225.391 111.406 225.185 111.261 225.185 111.029V109.515C225.185 109.285 225.391 109.115 225.617 109.115H225.663C226.573 109.22 228.705 109.494 230.808 109.494C232.833 109.494 233.453 108.825 233.453 107.606C233.453 106.029 229.377 105.157 227.388 104.399C225.408 103.644 224.707 102.194 224.707 100.724C224.707 98.4098 226.722 96.7292 230.955 96.7292C233.125 96.7292 235.111 97.1101 235.885 97.2809C236.114 97.322 236.295 97.4696 236.295 97.6787V99.2351C236.295 99.4432 236.139 99.6132 235.907 99.6132H235.864C234.359 99.4881 232.801 99.2313 230.824 99.2313C229.136 99.2313 227.874 99.7783 227.874 100.724C227.874 101.416 228.729 102.052 229.739 102.422C230.75 102.79 232.075 103.267 233.589 103.829C235.506 104.546 236.75 105.589 236.75 107.606C236.75 109.728 235.317 112 230.763 112ZM218.658 101.473C218.658 99.896 217.333 99.2229 215.053 99.2229C214.577 99.2229 212.506 99.2649 212.096 99.3069V103.866C212.464 103.887 214.672 103.929 215.053 103.929C217.404 103.929 218.658 103.512 218.658 101.663V101.473ZM222.074 111.824H219.295C219.045 111.824 218.954 111.61 218.843 111.403L215.56 106.304H215.053C214.464 106.304 212.623 106.245 212.096 106.22V111.403C212.096 111.632 211.916 111.824 211.667 111.824H209.392C209.142 111.824 208.937 111.632 208.937 111.403V97.6245C208.937 97.2025 209.207 97.0551 209.663 96.9943C210.845 96.8262 213.395 96.7227 215.053 96.7227C218.562 96.7227 221.798 97.8795 221.798 101.473V101.663C221.798 103.888 220.589 105.108 218.724 105.777L222.3 111.403C222.346 111.466 222.346 111.526 222.346 111.573C222.346 111.716 222.254 111.824 222.074 111.824ZM191.16 99.3266H186.617V111.403C186.617 111.632 186.408 111.824 186.158 111.824H183.904C183.654 111.824 183.449 111.632 183.449 111.403V99.3266H178.904C178.656 99.3266 178.45 99.1818 178.45 98.9494V97.2884C178.45 97.0551 178.656 96.8889 178.904 96.8889H191.16C191.406 96.8889 191.61 97.0551 191.61 97.2884V98.9494C191.61 99.1818 191.406 99.3266 191.16 99.3266ZM169.367 111.99C165.704 111.99 162.549 110.519 162.549 106.038V97.2884C162.549 97.0551 162.757 96.8889 163.007 96.8889H165.256C165.51 96.8889 165.713 97.0551 165.713 97.2884V106.038C165.713 108.437 166.912 109.573 169.367 109.573C171.827 109.573 173.025 108.437 173.025 106.038V97.2884C173.025 97.0551 173.228 96.8889 173.479 96.8889H175.732C175.986 96.8889 176.19 97.0551 176.19 97.2884V106.038C176.19 110.519 173.034 111.99 169.367 111.99ZM151.131 107.681C151.131 109.444 151.204 109.491 152.925 109.491H158.69C158.94 109.491 159.145 109.68 159.145 109.911V111.253C159.145 111.55 159.03 111.656 158.69 111.696C157.961 111.802 156.477 111.99 153.77 111.99C149.992 111.99 147.988 112.014 147.988 107.681V101.029C147.988 96.6975 149.992 96.7227 153.77 96.7227C156.477 96.7227 157.961 96.9123 158.69 97.0149C159.03 97.0551 159.145 97.1623 159.145 97.4583V98.8009C159.145 99.0305 158.94 99.2229 158.69 99.2229H152.925C151.204 99.2229 151.131 99.2705 151.131 101.029V102.957H158.416C158.667 102.957 158.873 103.149 158.873 103.377V104.895C158.873 105.123 158.667 105.313 158.416 105.313H151.131V107.681ZM141.374 101.473C141.374 99.896 140.048 99.2229 137.772 99.2229C137.292 99.2229 135.221 99.2649 134.814 99.3069V103.866C135.176 103.887 137.38 103.929 137.772 103.929C140.114 103.929 141.374 103.512 141.374 101.663V101.473ZM144.789 111.824H142.009C141.761 111.824 141.668 111.61 141.554 111.403L138.275 106.304H137.772C137.177 106.304 135.337 106.245 134.814 106.22V111.403C134.814 111.632 134.631 111.824 134.38 111.824H132.103C131.855 111.824 131.65 111.632 131.65 111.403V97.6245C131.65 97.2025 131.92 97.0551 132.377 96.9943C133.562 96.8262 136.108 96.7227 137.772 96.7227C141.277 96.7227 144.514 97.8795 144.514 101.473V101.663C144.514 103.888 143.309 105.108 141.442 105.777L145.014 111.403C145.061 111.466 145.061 111.526 145.061 111.573C145.061 111.716 144.97 111.824 144.789 111.824ZM100.558 103.28C100.558 100.506 98.7414 99.2649 96.5102 99.2649C94.2792 99.2649 92.4627 100.506 92.4627 103.28V105.431C92.4627 108.207 94.2792 109.446 96.5102 109.446C98.7414 109.446 100.558 108.207 100.558 105.431V103.28ZM96.5102 111.99C92.7548 111.99 89.2773 110.057 89.2773 105.431V103.28C89.2773 98.6562 92.7548 96.7227 96.5102 96.7227C100.266 96.7227 103.742 98.6562 103.742 103.28V105.431C103.742 110.057 100.266 111.99 96.5102 111.99ZM80.4186 112C78.409 112 76.3669 111.68 75.2731 111.448C75.0456 111.406 74.8404 111.261 74.8404 111.029V109.515C74.8404 109.285 75.0456 109.115 75.2731 109.115H75.3186C76.2284 109.22 78.3595 109.494 80.4641 109.494C82.492 109.494 83.1057 108.825 83.1057 107.606C83.1057 106.029 79.0367 105.157 77.0482 104.399C75.0637 103.644 74.3633 102.194 74.3633 100.724C74.3633 98.4098 76.381 96.7292 80.6137 96.7292C82.7842 96.7292 84.7706 97.1101 85.5419 97.2809C85.7713 97.322 85.9504 97.4696 85.9504 97.6787V99.2351C85.9504 99.4432 85.7926 99.6132 85.5662 99.6132H85.5206C84.0155 99.4881 82.4576 99.2313 80.4753 99.2313C78.795 99.2313 77.5274 99.7783 77.5274 100.724C77.5274 101.416 78.3847 102.054 79.3915 102.422C80.4024 102.79 81.7317 103.267 83.2441 103.829C85.1669 104.546 86.4093 105.589 86.4093 107.606C86.4093 109.728 84.9758 112 80.4186 112ZM120.271 111.824H117.968C117.421 111.824 116.942 111.824 116.584 111.068L110.408 101.515C110.343 101.39 110.272 101.344 110.205 101.344C110.139 101.344 110.09 101.39 110.09 101.515V111.403C110.09 111.632 109.907 111.824 109.656 111.824H107.725C107.471 111.824 107.271 111.632 107.271 111.403V97.7291C107.271 97.2661 107.676 96.8889 108.177 96.8889H110.637C111.115 96.8889 111.364 97.0149 111.641 97.5648L118.061 107.681C118.104 107.784 118.172 107.85 118.243 107.85C118.288 107.85 118.353 107.784 118.353 107.66V97.2884C118.353 97.0551 118.535 96.8889 118.788 96.8889H120.746C120.997 96.8889 121.181 97.0551 121.181 97.2884V110.982C121.181 111.446 120.77 111.824 120.271 111.824ZM70.265 111.824H67.9652C67.762 111.824 67.6044 111.61 67.6044 111.403V102.312C67.6044 102.166 67.5801 102.103 67.5306 102.103C67.5133 102.103 67.4669 102.166 67.4183 102.228L63.7426 109.746C63.6082 109.974 63.3141 110.104 63.0188 110.104H61.835C61.5388 110.104 61.2427 109.974 61.1092 109.746L57.4092 102.228C57.3617 102.166 57.3142 102.103 57.2951 102.103C57.2496 102.103 57.2253 102.166 57.2253 102.312V111.403C57.2253 111.61 57.0656 111.824 56.8603 111.824H54.5636C54.3573 111.824 54.1734 111.716 54.1734 111.508V97.7291C54.1734 97.2661 54.5848 96.8889 55.0852 96.8889H56.9524C57.3142 96.8889 57.6347 97.098 57.7944 97.393L62.1626 105.606C62.2747 105.795 62.3222 105.9 62.4173 105.9C62.5063 105.9 62.5517 105.795 62.6671 105.606L67.0321 97.393C67.1919 97.098 67.5133 96.8889 67.8752 96.8889H69.7434C70.2438 96.8889 70.6532 97.2661 70.6532 97.7291V111.508C70.6532 111.716 70.4702 111.824 70.265 111.824ZM47.4609 103.28C47.4609 100.506 45.6462 99.2649 43.4142 99.2649C41.1842 99.2649 39.3675 100.506 39.3675 103.28V105.431C39.3675 108.207 41.1842 109.446 43.4142 109.446C45.6462 109.446 47.4609 108.207 47.4609 105.431V103.28ZM43.4142 111.99C39.6587 111.99 36.1821 110.057 36.1821 105.431V103.28C36.1821 98.6562 39.6587 96.7227 43.4142 96.7227C47.1717 96.7227 50.6503 98.6562 50.6503 103.28V105.431C50.6503 110.057 47.1717 111.99 43.4142 111.99ZM32.1324 111.824H29.8811C29.6273 111.824 29.4212 111.632 29.4212 111.403V105.313H22.2103V111.403C22.2103 111.632 22.0062 111.824 21.7594 111.824H19.5041C19.2514 111.824 19.0472 111.632 19.0472 111.403V97.2884C19.0472 97.0551 19.2514 96.8889 19.5041 96.8889H21.7594C22.0062 96.8889 22.2103 97.0551 22.2103 97.2884V102.748H29.4212V97.2884C29.4212 97.0551 29.6273 96.8889 29.8811 96.8889H32.1324C32.3801 96.8889 32.5863 97.0551 32.5863 97.2884V111.403C32.5863 111.632 32.3801 111.824 32.1324 111.824ZM15.7072 99.3266H11.1651V111.403C11.1651 111.632 10.9609 111.824 10.7072 111.824H8.45791C8.2072 111.824 8.003 111.632 8.003 111.403V99.3266H3.45592C3.20622 99.3266 3 99.1818 3 98.9494V97.2884C3 97.0551 3.20622 96.8889 3.45592 96.8889H15.7072C15.9579 96.8889 16.1631 97.0551 16.1631 97.2884V98.9494C16.1631 99.1818 15.9579 99.3266 15.7072 99.3266Z" fill="white"/>
</svg>
